<svg width="17" height="17" viewBox="0 0 17 17" fill="none" xmlns="http://www.w3.org/2000/svg">
<path d="M8.5 2.5C9.6 2.5 10.5 3.4 10.5 4.5C10.5 5.6 9.6 6.5 8.5 6.5C7.4 6.5 6.5 5.6 6.5 4.5C6.5 3.4 7.4 2.5 8.5 2.5ZM8.5 12.5C11.2 12.5 14.3 13.79 14.5 14.5H2.5C2.73 13.78 5.81 12.5 8.5 12.5ZM8.5 0.5C6.29 0.5 4.5 2.29 4.5 4.5C4.5 6.71 6.29 8.5 8.5 8.5C10.71 8.5 12.5 6.71 12.5 4.5C12.5 2.29 10.71 0.5 8.5 0.5ZM8.5 10.5C5.83 10.5 0.5 11.84 0.5 14.5V16.5H16.5V14.5C16.5 11.84 11.17 10.5 8.5 10.5Z" fill="#90BFDB"/>
</svg>
