<svg width="40" height="40" viewBox="0 0 40 40" fill="none" xmlns="http://www.w3.org/2000/svg">
<g clip-path="url(#clip0_2197_51559)">
<path d="M40.0033 1.66666C39.9905 1.23393 39.8099 0.823158 39.4996 0.521284C39.1892 0.21941 38.7737 0.050125 38.3407 0.0492587C37.9078 0.0483924 37.4915 0.216013 37.18 0.516643C36.8685 0.817272 36.6862 1.22732 36.6717 1.66C36.6717 1.66 36.6567 5.10833 36.6567 7.66666C36.6567 10.1217 36.415 12.4167 35.9783 14.5917C28.3933 8.60333 16.925 0.68833 13.28 4.335C11.6483 5.96666 11.6483 8.17666 11.65 9.79166C11.65 10.3683 11.65 11.3333 11.535 11.5317C11.3083 11.675 10.365 11.6683 9.8 11.6667C8.2 11.66 6.00667 11.6417 4.37 13.2783C0.725003 16.9233 8.62334 28.3917 14.5983 35.975C12.3171 36.4304 9.99623 36.6577 7.67 36.6533C5.11167 36.6533 1.66334 36.6683 1.66334 36.6683C1.22131 36.6692 0.797737 36.8457 0.485802 37.1588C0.173866 37.472 -0.000880717 37.8963 3.33809e-06 38.3383C0.000887393 38.7804 0.17733 39.2039 0.490516 39.5159C0.803701 39.8278 1.22798 40.0025 1.67 40.0017H1.67667C1.67667 40.0017 5.11667 39.9883 7.67 39.9883C17.0617 39.9883 24.88 36.9333 30.9067 30.9067C36.9333 24.88 39.9883 17.0617 39.9883 7.67C39.9883 5.11833 40.0033 1.67666 40.0033 1.67666V1.67V1.66666ZM28.55 28.5467C25.6272 31.4961 22.0522 33.7175 18.1133 35.0317C17.3652 34.0981 16.6301 33.1541 15.9083 32.2C19.7709 31.0649 23.284 28.9724 26.1217 26.1167C27.9607 24.2871 29.4941 22.1741 30.6633 19.8583C30.8614 19.4629 30.8942 19.0051 30.7547 18.5855C30.6856 18.3777 30.5762 18.1856 30.4328 18.02C30.2895 17.8545 30.1149 17.7189 29.9192 17.6208C29.5238 17.4228 29.0659 17.39 28.6463 17.5295C28.2267 17.6691 27.8797 17.9696 27.6817 18.365C26.6745 20.3616 25.352 22.1828 23.765 23.7583C21.0296 26.5082 17.5759 28.4332 13.7983 29.3133C9.10334 22.7 6.04167 16.9417 6.73 15.6317C7.33667 15.0267 8.34 14.9883 9.78167 14.9967C11.1767 15.0067 12.7633 15.0167 13.8783 13.9017C14.99 12.79 14.9883 11.195 14.9883 9.78666C14.9883 8.53166 14.9883 7.345 15.6133 6.71166C17.315 5.82666 26.305 11.1 35.04 18.1067C33.7266 22.0459 31.5051 25.6211 28.555 28.5433L28.55 28.5467Z" fill="#90BFDB"/>
</g>
<defs>
<clipPath id="clip0_2197_51559">
<rect width="40" height="40" fill="white"/>
</clipPath>
</defs>
</svg>
