<svg width="40" height="40" viewBox="0 0 40 40" fill="none" xmlns="http://www.w3.org/2000/svg">
<g clip-path="url(#clip0_2197_51554)">
<path d="M33.3357 13.315C33.3316 11.9886 32.9301 10.6939 32.1829 9.59791C31.4357 8.50196 30.3772 7.65511 29.144 7.16667L25.0023 5.51167V3.33333C25.4444 3.33333 25.8683 3.15774 26.1809 2.84518C26.4934 2.53262 26.669 2.10869 26.669 1.66667C26.669 1.22464 26.4934 0.800716 26.1809 0.488155C25.8683 0.175595 25.4444 0 25.0023 0L15.0023 0C14.5603 0 14.1364 0.175595 13.8238 0.488155C13.5113 0.800716 13.3357 1.22464 13.3357 1.66667C13.3357 2.10869 13.5113 2.53262 13.8238 2.84518C14.1364 3.15774 14.5603 3.33333 15.0023 3.33333V5.51167L10.859 7.16667C9.81004 7.5964 8.88797 8.28652 8.17994 9.1718C7.47192 10.0571 7.00132 11.1083 6.81264 12.226C6.62395 13.3438 6.7234 14.4912 7.1016 15.5599C7.47979 16.6285 8.12423 17.5831 8.97401 18.3333C8.26296 18.9579 7.69329 19.727 7.30305 20.5892C6.9128 21.4514 6.71094 22.3869 6.71094 23.3333C6.71094 24.2797 6.9128 25.2153 7.30305 26.0775C7.69329 26.9397 8.26296 27.7088 8.97401 28.3333C7.9667 29.2286 7.25391 30.4078 6.92935 31.7158C6.6048 33.0238 6.68367 34.3995 7.15561 35.6618C7.62755 36.9242 8.47045 38.0141 9.57349 38.7884C10.6765 39.5627 11.9881 39.9851 13.3357 40H26.669C28.0168 39.9854 29.3285 39.5633 30.4318 38.7891C31.5351 38.015 32.3783 36.925 32.8504 35.6626C33.3226 34.4002 33.4016 33.0244 33.0771 31.7162C32.7526 30.4081 32.0398 29.2287 31.0323 28.3333C31.7434 27.7088 32.3131 26.9397 32.7033 26.0775C33.0936 25.2153 33.2954 24.2797 33.2954 23.3333C33.2954 22.3869 33.0936 21.4514 32.7033 20.5892C32.3131 19.727 31.7434 18.9579 31.0323 18.3333C31.7531 17.7104 32.3317 16.9401 32.729 16.0743C33.1264 15.2086 33.3333 14.2676 33.3357 13.315ZM30.0023 33.3333C30.0023 34.2174 29.6512 35.0652 29.026 35.6904C28.4009 36.3155 27.5531 36.6667 26.669 36.6667H13.3357C12.4516 36.6667 11.6038 36.3155 10.9787 35.6904C10.3535 35.0652 10.0023 34.2174 10.0023 33.3333C10.0023 32.4493 10.3535 31.6014 10.9787 30.9763C11.6038 30.3512 12.4516 30 13.3357 30H26.669C27.5531 30 28.4009 30.3512 29.026 30.9763C29.6512 31.6014 30.0023 32.4493 30.0023 33.3333ZM30.0023 23.3333C30.0023 24.2174 29.6512 25.0652 29.026 25.6904C28.4009 26.3155 27.5531 26.6667 26.669 26.6667H13.3357C12.4516 26.6667 11.6038 26.3155 10.9787 25.6904C10.3535 25.0652 10.0023 24.2174 10.0023 23.3333C10.0023 22.4493 10.3535 21.6014 10.9787 20.9763C11.6038 20.3512 12.4516 20 13.3357 20H26.669C27.5531 20 28.4009 20.3512 29.026 20.9763C29.6512 21.6014 30.0023 22.4493 30.0023 23.3333ZM13.3357 16.6667C12.5724 16.6523 11.8372 16.3764 11.2529 15.885C10.6686 15.3936 10.2707 14.7165 10.1258 13.967C9.98077 13.2175 10.0975 12.4409 10.4563 11.767C10.8152 11.0932 11.3945 10.563 12.0973 10.265L17.2873 8.18833C17.5969 8.06467 17.8622 7.85104 18.0491 7.57503C18.236 7.29902 18.3358 6.97332 18.3357 6.64V3.33333H21.669V6.64C21.6689 6.97332 21.7687 7.29902 21.9556 7.57503C22.1425 7.85104 22.4078 8.06467 22.7173 8.18833L27.9057 10.2633C28.6094 10.5606 29.1897 11.0907 29.5493 11.7647C29.909 12.4387 30.0262 13.2159 29.8813 13.966C29.7364 14.7161 29.3383 15.3937 28.7535 15.8853C28.1688 16.3769 27.4329 16.6528 26.669 16.6667H13.3357Z" fill="#90BFDB"/>
</g>
<defs>
<clipPath id="clip0_2197_51554">
<rect width="40" height="40" fill="white"/>
</clipPath>
</defs>
</svg>
