<svg width="40" height="40" viewBox="0 0 40 40" fill="none" xmlns="http://www.w3.org/2000/svg">
<g clip-path="url(#clip0_2197_51549)">
<path d="M31.6665 20H27.9665L29.8165 13.45C30.5832 10.6166 28.9165 7.64998 26.0832 6.86665C25.6665 6.74998 25.2332 6.68332 24.7832 6.68332L24.9332 5.86665C25.1499 4.54998 24.8499 3.21665 24.0832 2.13332C23.3165 1.04998 22.1499 0.299983 20.7999 0.0666501C18.8165 -0.28335 16.8832 0.61665 15.8165 2.19998C14.7499 0.633317 12.8165 -0.266683 10.8332 0.0666501C9.51653 0.283317 8.36653 1.01665 7.59986 2.09998C6.8332 3.18332 6.5332 4.51665 6.76653 5.91665L6.9332 6.66665C6.11808 6.6896 5.31879 6.89721 4.59553 7.27382C3.87226 7.65044 3.24388 8.18625 2.7577 8.84091C2.27152 9.49557 1.94022 10.252 1.78874 11.0533C1.63726 11.8545 1.66956 12.6797 1.8832 13.4666L3.76653 20.1667C2.74986 20.4333 1.8332 21 1.14986 21.8333C0.183198 22.9833 -0.200135 24.5 0.0998646 25.9833L1.56653 33.3333C2.3332 37.2167 5.7832 40 9.7332 40H31.6665C36.2665 40 39.9999 36.2667 39.9999 31.6667V28.3333C39.9999 23.7333 36.2665 20 31.6665 20ZM36.6665 28.3333H16.6665C16.6665 25.5833 18.9165 23.3333 21.6665 23.3333H31.6665C34.4165 23.3333 36.6665 25.5833 36.6665 28.3333ZM25.1832 10.0666C26.2665 10.3666 26.8999 11.4833 26.5999 12.55L24.4999 19.9833H22.3665L24.1665 10.0333C24.4999 9.94998 24.8499 9.96665 25.1832 10.05V10.0666ZM20.2832 3.34998C20.7165 3.41665 21.0999 3.66665 21.3665 4.03332C21.6165 4.39998 21.7165 4.83332 21.6499 5.26665L18.9665 20H15.4832L18.3165 4.69998C18.4832 3.79998 19.3499 3.21665 20.2832 3.36665V3.34998ZM10.3165 4.01665C10.5665 3.64998 10.9665 3.41665 11.3999 3.33332C12.2999 3.18332 13.1665 3.78332 13.3332 4.73332L14.1499 8.86665L12.6332 17.0833L10.8332 8.93332C10.8332 8.73332 10.7832 8.51665 10.6999 8.33332L10.0165 5.26665C9.94987 4.83332 10.0499 4.38332 10.2999 4.01665H10.3165ZM6.49986 10.05C6.89986 9.93332 7.29986 9.94998 7.6832 10.0833L9.86653 19.9833H7.1832L5.0832 12.55C4.7832 11.4667 5.4332 10.35 6.49986 10.05ZM4.84986 32.65L3.3832 25.3C3.2832 24.8167 3.41653 24.3 3.7332 23.9167C4.04986 23.5333 4.51653 23.3 5.01653 23.3H15.0165C13.9665 24.7 13.3499 26.4333 13.3499 28.3V31.6333C13.3499 33.5167 13.9832 35.2667 15.0499 36.6666H9.74986C7.36653 36.6666 5.31653 34.9833 4.84986 32.65ZM31.6832 36.6333H21.6832C18.9332 36.6333 16.6832 34.3833 16.6832 31.6333H23.3499L26.4999 33.7333C27.6165 34.4833 29.0832 34.4833 30.1999 33.7333L33.3499 31.6333H36.6832C36.6832 34.3833 34.4332 36.6333 31.6832 36.6333Z" fill="#90BFDB"/>
</g>
<defs>
<clipPath id="clip0_2197_51549">
<rect width="40" height="40" fill="white"/>
</clipPath>
</defs>
</svg>
