<svg width="300" height="83" viewBox="0 0 300 83" fill="none" xmlns="http://www.w3.org/2000/svg">
<path d="M123.085 34.6205C123.085 34.4919 123.213 34.492 123.342 34.3634C123.213 34.3634 123.213 34.3634 123.085 34.3634C122.571 34.3634 122.057 34.3634 121.672 34.2348C120.644 33.9776 119.616 32.8205 118.717 30.5061C115.248 21.8915 112.421 14.9484 110.365 9.8054C110.108 9.03395 109.723 8.77679 109.466 8.77679C109.209 8.77679 108.824 9.29111 108.567 10.1911L100.087 31.4061C99.7016 32.4347 99.3162 33.0776 98.9307 33.4634C98.4168 33.9777 97.9029 34.3634 97.132 34.3634C96.7466 34.3634 96.4896 34.4919 96.1042 34.4919C95.8472 34.4919 95.7188 34.6205 95.7188 34.7491C95.7188 35.0063 95.9757 35.1348 96.3611 35.1348C97.0035 35.1348 98.4168 35.1348 100.344 35.0063C100.729 35.0063 101.243 35.0063 102.143 35.0063C103.042 35.0063 103.556 35.0063 103.941 35.0063C104.327 35.0063 104.455 34.8777 104.455 34.6205C104.455 34.4919 104.327 34.3634 103.941 34.3634H103.428C102.528 34.3634 102.014 33.9776 102.014 33.3348C102.014 32.8205 102.143 32.1776 102.528 31.2775L104.327 26.3917C104.455 26.2631 104.455 26.1345 104.584 26.1345H112.164C112.293 26.1345 112.421 26.2631 112.55 26.3917L115.248 33.5919C115.376 33.9776 115.248 34.2348 114.991 34.3634C114.734 34.3634 114.477 34.4919 114.477 34.6205C114.477 34.7491 114.862 34.8777 115.505 34.8777C116.918 34.8777 119.102 35.0063 121.929 35.0063C122.571 35.0063 122.956 35.0062 123.085 34.8777C123.085 34.8777 123.085 34.8777 123.213 34.8777C123.085 34.7491 123.085 34.7491 123.085 34.6205ZM111.65 24.463H105.483C105.355 24.463 105.355 24.3345 105.355 24.2059L108.438 15.8485C108.438 15.5913 108.567 15.5913 108.695 15.5913C108.824 15.5913 108.824 15.7199 108.824 15.8485L111.907 24.2059C111.779 24.463 111.779 24.463 111.65 24.463Z" fill="#0A3647"/>
<path d="M131.309 34.2351C130.538 34.1065 130.024 34.1065 130.024 34.1065C129.253 33.8493 128.868 32.5636 128.868 30.3778L128.482 16.2345H128.611C129.51 17.2631 130.538 18.2917 131.437 19.3203C133.364 21.3775 135.035 23.1775 136.576 24.7205C141.073 29.2206 144.414 32.5636 146.469 34.6208C146.983 35.1351 147.369 35.3922 147.626 35.3922C147.883 35.3922 148.011 35.0065 148.011 34.3636L148.396 13.0201C148.396 12.2486 148.525 11.6057 148.653 11.22C148.91 10.4486 149.553 10.0628 150.709 10.0628C151.095 10.0628 151.351 9.93424 151.351 9.80567C151.351 9.54851 151.095 9.54852 150.581 9.54852C149.938 9.54852 149.167 9.54852 148.396 9.54852C147.626 9.54852 147.24 9.54852 147.24 9.54852C147.112 9.54852 146.469 9.54852 145.57 9.54852C144.671 9.54852 143.771 9.54852 143.129 9.54852C142.486 9.54852 142.229 9.67709 142.229 9.80567C142.229 10.0628 142.358 10.0628 142.743 10.0628C143.643 10.0628 144.157 10.1914 144.542 10.32C145.056 10.5771 145.313 10.9629 145.57 11.6057C145.698 11.8629 145.698 12.5058 145.698 13.2772L146.084 28.4491H145.955C143.257 25.7491 140.816 23.1775 138.503 20.7346C133.364 15.463 129.895 11.8629 128.097 9.93425C127.454 9.29137 127.069 8.90564 126.812 8.90564C126.555 8.90564 126.426 9.29136 126.426 10.0628L126.169 29.9921C126.169 31.535 126.041 32.5636 125.913 33.0779C125.784 33.7208 125.527 33.9779 125.013 34.1065C124.628 34.1065 124.242 34.2351 123.857 34.2351C123.6 34.2351 123.343 34.2351 123.214 34.3636C123.343 34.3636 123.343 34.4922 123.343 34.6208C123.343 34.7494 123.214 34.7494 123.086 34.8779C123.214 35.0065 123.343 35.0065 123.728 35.0065C124.371 35.0065 125.27 35.0065 126.041 35.0065C126.94 35.0065 127.326 35.0065 127.326 35.0065C127.454 35.0065 127.968 35.0065 128.868 35.0065C129.767 35.0065 130.666 35.0065 131.566 35.0065C132.08 35.0065 132.336 34.8779 132.336 34.6208C132.336 34.4922 132.08 34.3636 131.309 34.2351Z" fill="#0A3647"/>
<path d="M123.472 34.6209C123.472 34.4923 123.472 34.4923 123.343 34.3636C123.215 34.3636 123.086 34.4923 123.086 34.6209C123.086 34.7495 123.086 34.7495 123.215 34.8782C123.343 34.8782 123.472 34.7495 123.472 34.6209Z" fill="#0A3647"/>
<path d="M168.182 26.3917L170.88 33.5919C171.009 33.9776 170.88 34.2348 170.624 34.3634C170.367 34.3634 170.11 34.4919 170.11 34.6205C170.11 34.7491 170.495 34.8777 171.137 34.8777C172.551 34.8777 174.735 35.0063 177.561 35.0063C178.204 35.0063 178.589 35.0062 178.718 34.8777C178.975 34.8777 179.103 34.7491 179.103 34.6205C179.103 34.4919 178.975 34.3634 178.718 34.3634C178.204 34.3634 177.69 34.3634 177.304 34.2348C176.277 33.9776 175.249 32.8205 174.349 30.5061C170.88 21.8915 168.054 14.9484 165.998 9.8054C165.741 9.03395 165.356 8.77679 165.099 8.77679C164.842 8.77679 164.456 9.29111 164.2 10.1911L155.72 31.4061C155.334 32.4347 154.949 33.0776 154.564 33.4634C154.05 33.9777 153.536 34.3634 152.765 34.3634C152.379 34.3634 152.122 34.4919 151.737 34.4919C151.48 34.4919 151.352 34.6205 151.352 34.7491C151.352 35.0063 151.609 35.1348 151.994 35.1348C152.636 35.1348 154.05 35.1348 155.977 35.0063C156.362 35.0063 156.876 35.0063 157.776 35.0063C158.675 35.0063 159.189 35.0063 159.574 35.0063C159.96 35.0063 160.088 34.8777 160.088 34.6205C160.088 34.4919 159.96 34.3634 159.574 34.3634H159.06C158.161 34.3634 157.647 33.9776 157.647 33.3348C157.647 32.8205 157.776 32.1776 158.161 31.2775L159.96 26.3917C160.088 26.2631 160.088 26.1345 160.217 26.1345H167.797C167.925 26.1345 168.054 26.2631 168.182 26.3917ZM167.155 24.463H160.988C160.859 24.463 160.859 24.3345 160.859 24.2059L163.943 15.8485C163.943 15.5913 164.071 15.5913 164.2 15.5913C164.328 15.5913 164.328 15.7199 164.328 15.8485L167.412 24.2059C167.412 24.463 167.283 24.463 167.155 24.463Z" fill="#0A3647"/>
<path d="M180.513 10.0631C181.412 10.0631 181.926 10.1917 182.312 10.4488C182.697 10.706 182.954 11.3488 183.083 12.1203C183.083 12.8918 183.211 15.2061 183.211 19.3205V25.235C183.211 29.0923 183.211 31.5352 183.083 32.4353C182.954 33.5924 182.569 34.2353 182.055 34.2353C181.669 34.2353 181.412 34.2353 181.027 34.3639C180.513 34.3639 180.256 34.4925 180.256 34.621C180.256 34.8782 180.513 35.0068 180.898 35.0068C181.412 35.0068 182.183 35.0068 183.211 35.0068C184.239 35.0068 184.881 35.0068 185.138 35.0068C185.909 35.0068 187.194 35.0068 189.25 35.1353C191.305 35.2639 193.104 35.2639 194.903 35.2639C195.674 35.2639 196.059 35.2639 196.188 35.1353C196.573 35.0068 196.83 34.7496 196.958 34.2353C197.344 32.9496 197.472 31.6638 197.472 30.378C197.472 29.9923 197.344 29.8638 197.215 29.8638C196.958 29.8638 196.83 29.9923 196.83 30.378C196.701 31.1495 196.445 31.921 195.931 32.4353C195.288 33.0781 194.003 33.3353 191.948 33.3353C189.764 33.3353 188.479 33.0781 187.836 32.5638C187.579 32.3067 187.322 31.5352 187.194 30.378C187.066 29.6066 187.066 27.9351 187.066 25.3636V19.4491C187.066 15.4633 187.066 13.0203 187.194 12.2489C187.322 11.0917 187.708 10.4488 188.479 10.3202C188.864 10.1917 189.25 10.1917 189.764 10.1917C190.149 10.1917 190.406 10.0631 190.406 9.93452C190.406 9.67736 190.149 9.67737 189.635 9.67737C189.121 9.67737 188.35 9.67737 187.194 9.67737C186.038 9.67737 185.267 9.67737 185.138 9.67737C184.881 9.67737 184.239 9.67737 183.083 9.67737C181.926 9.67737 181.155 9.67737 180.513 9.67737C179.999 9.67737 179.742 9.80594 179.742 9.93452C179.999 9.93452 180.128 10.0631 180.513 10.0631Z" fill="#0A3647"/>
<path d="M213.536 35.3922C217.776 35.3922 221.117 34.1065 223.686 31.4064C226.256 28.8349 227.412 25.4919 227.412 21.6346C227.412 17.7774 226.127 14.6915 223.686 12.3772C221.245 10.0628 217.905 8.90564 213.793 8.90564C209.168 8.90564 205.571 10.4485 203.001 13.4058C200.945 15.8487 199.789 18.806 199.789 22.1489C199.789 25.6205 200.817 28.5777 203.001 31.0207C205.571 33.9779 209.04 35.3922 213.536 35.3922ZM207.241 12.7629C208.654 11.3486 210.581 10.5771 212.894 10.5771C215.721 10.5771 218.033 11.6057 219.96 13.7915C221.888 16.1059 222.787 19.0631 222.787 22.7918C222.787 27.0348 221.759 30.1206 219.703 31.9207C218.419 33.0779 216.748 33.7208 214.95 33.7208C211.738 33.7208 209.297 32.435 207.369 29.9921C205.571 27.6777 204.543 24.7205 204.543 21.1203C204.543 17.3916 205.442 14.563 207.241 12.7629Z" fill="#0A3647"/>
<path d="M257.343 22.2778C256.957 22.2778 256.315 22.2778 255.287 22.2778C254.388 22.2778 253.745 22.2778 253.36 22.2778C253.103 22.2778 252.332 22.2778 251.176 22.2778C250.019 22.2778 249.12 22.2778 248.478 22.2778C247.964 22.2778 247.707 22.4063 247.707 22.6635C247.707 22.7921 247.835 22.9206 248.221 22.9206C248.735 22.9206 249.248 22.9207 249.505 23.0492C250.405 23.3064 250.919 23.9493 250.919 24.9779C250.919 25.7493 250.919 27.0351 250.919 28.9637V32.1781C250.919 32.5638 250.79 32.821 250.662 33.0781C250.405 33.5924 249.248 33.8496 247.45 33.8496C243.981 33.8496 241.154 32.6924 238.97 30.2495C236.786 27.8065 235.758 24.8493 235.758 21.1206C235.758 17.3919 236.786 14.5632 238.842 12.8918C240.512 11.4774 242.696 10.8345 245.523 10.8345C247.193 10.8345 248.863 11.0917 250.405 11.7346C251.561 12.2489 252.46 12.7632 253.103 13.4061C253.745 14.0489 254.131 14.949 254.259 16.2347C254.259 16.4919 254.388 16.6204 254.645 16.6204C254.902 16.6204 255.03 16.3633 255.03 15.849C255.03 14.1775 255.03 12.7632 255.159 11.606C255.159 10.8345 255.287 10.3202 255.287 10.3202C255.287 10.0631 255.159 9.93451 254.773 9.93451C254.002 9.93451 253.103 9.80593 252.075 9.54878C250.276 9.16305 248.221 9.03448 246.165 9.03448C242.568 9.03448 239.484 9.80594 237.043 11.2203C235.373 12.2489 233.959 13.6632 232.932 15.4633C231.775 17.5205 231.133 19.8348 231.133 22.2778C231.133 26.6493 232.675 29.9923 235.758 32.4353C238.585 34.4925 242.182 35.5211 246.679 35.5211C250.148 35.5211 252.846 35.0068 254.773 33.9782C255.03 33.8496 255.159 33.4639 255.159 32.821V29.0923C255.159 27.1637 255.159 25.7493 255.159 24.9779C255.159 23.8207 255.672 23.1778 256.443 23.0492C256.829 22.9207 257.214 22.9206 257.471 22.9206C257.728 22.9206 257.857 22.7921 257.857 22.6635C257.985 22.4063 257.728 22.2778 257.343 22.2778Z" fill="#0A3647"/>
<path d="M272.119 34.3649C271.605 34.3649 271.091 34.3649 270.448 34.2363C269.678 34.1078 269.164 33.5935 269.164 32.5649C269.035 31.6648 269.035 29.2219 269.035 25.1075V19.193C269.035 15.2071 269.035 12.7642 269.164 11.9927C269.292 10.8356 269.678 10.1927 270.448 10.0641C270.834 9.93553 271.219 9.93554 271.476 9.93554C271.862 9.93554 271.99 9.80696 271.99 9.54981C271.99 9.42124 271.733 9.29266 271.219 9.29266C270.705 9.29266 270.063 9.29266 269.035 9.29266C268.007 9.29266 267.365 9.29266 267.108 9.29266C266.851 9.29266 266.08 9.29266 265.052 9.29266C264.024 9.29266 263.254 9.29266 262.74 9.29266C262.226 9.29266 261.969 9.42124 261.969 9.54981C261.969 9.80696 262.226 9.93554 262.611 9.93554C262.997 9.93554 263.382 9.93553 263.767 10.0641C264.41 10.1927 264.795 10.8356 264.924 11.9927C264.924 12.7642 265.052 15.0786 265.052 19.193V25.1075C265.052 28.9648 265.052 31.5363 264.924 32.4363C264.795 33.4649 264.538 33.9792 263.896 34.1078C263.511 34.1078 263.254 34.1078 262.868 34.2363C262.354 34.2363 262.097 34.3649 262.097 34.4935C262.097 34.7506 262.354 34.8792 262.74 34.8792C263.254 34.8792 264.024 34.8792 265.052 34.8792C266.08 34.8792 266.722 34.8792 266.979 34.8792C267.236 34.8792 267.879 34.8792 269.164 34.8792C270.448 34.8792 271.476 34.8792 272.247 34.8792C272.633 34.8792 272.89 34.7506 272.89 34.4935C272.633 34.4935 272.504 34.3649 272.119 34.3649Z" fill="#0A3647"/>
<path d="M299.49 28.7076C299.233 28.7076 299.105 28.9647 299.105 29.3505C298.976 30.1219 298.591 30.8934 297.948 31.5363C297.306 32.3077 296.278 32.9506 295.122 33.2077C294.351 33.3363 293.195 33.4649 291.781 33.4649C289.212 33.4649 286.899 32.4363 284.715 30.5077C282.274 28.1933 281.117 25.2361 281.117 21.5074C281.117 17.5215 282.145 14.6928 284.201 12.7642C285.743 11.3499 287.798 10.707 290.497 10.707C292.038 10.707 293.452 10.9641 294.736 11.3499C295.893 11.7356 296.792 12.2499 297.434 12.8928C298.334 13.7928 298.719 14.8214 298.719 15.9786C298.719 16.4929 298.848 16.7501 299.105 16.7501C299.362 16.7501 299.49 16.4929 299.49 15.9786C299.49 14.5643 299.619 13.2785 299.619 12.3785C299.619 11.8642 299.747 11.4784 299.747 11.0927C299.747 10.8356 299.876 10.5784 299.876 10.5784C299.876 10.3213 299.747 10.1927 299.362 10.1927C297.948 9.93554 296.792 9.80697 296.021 9.67839C294.351 9.42124 292.681 9.29266 291.139 9.29266C286.642 9.29266 283.045 10.4498 280.475 12.8928C277.905 15.3357 276.492 18.4215 276.492 22.1502C276.492 26.3932 277.905 29.7362 280.732 32.1791C283.559 34.6221 287.413 35.7793 292.295 35.7793C295.122 35.7793 297.049 35.5221 298.334 35.0078C298.719 34.8792 299.105 34.4935 299.233 33.9792C299.362 33.4649 299.49 32.6935 299.747 31.5363C299.875 30.5077 300.004 29.8648 300.004 29.6076C299.747 28.8362 299.619 28.7076 299.49 28.7076Z" fill="#0A3647"/>
<path d="M120.385 73.3223C120.128 73.3223 119.743 73.3222 119.1 73.1937C118.201 73.0651 116.788 72.6794 114.989 70.7507C113.062 68.6935 110.749 65.6077 107.923 62.1361C111.006 59.3075 112.034 56.8646 112.034 54.293C112.034 51.9787 110.492 50.3072 109.721 49.6643C107.923 48.3785 105.61 48.1214 103.554 48.1214C102.526 48.1214 99.9569 48.25 99.5714 48.25C99.443 48.25 97.2588 48.1214 95.7171 48.1214C95.3316 48.1214 95.2031 48.25 95.2031 48.3785C95.2031 48.5071 95.3316 48.6357 95.4601 48.6357C95.717 48.6357 96.3594 48.6357 96.6164 48.7643C97.7727 49.0214 98.0297 49.5357 98.0297 50.6929C98.1582 51.7215 98.1582 52.7501 98.1582 58.0217V63.9362C98.1582 67.1506 98.1582 69.8507 98.0297 71.265C97.9012 72.2936 97.7727 72.9365 97.0019 73.0651C96.7449 73.1937 96.231 73.1937 95.974 73.1937C95.7171 73.1937 95.7171 73.3222 95.7171 73.4508C95.7171 73.708 95.8455 73.708 96.231 73.708C97.2588 73.708 99.3145 73.5794 99.443 73.5794C99.5714 73.5794 101.756 73.708 103.554 73.708C103.94 73.708 104.068 73.5794 104.068 73.4508C104.068 73.3222 103.94 73.1937 103.811 73.1937C103.554 73.1937 102.783 73.0651 102.27 73.0651C101.242 72.9365 101.113 72.1651 100.985 71.265C100.856 69.8507 100.856 67.1506 100.856 63.9362V63.1648C100.856 63.0362 100.985 62.9076 101.113 62.9076L105.225 63.0362C105.482 63.0362 105.482 63.1648 105.61 63.2933C106.252 64.1934 107.923 66.3791 109.336 68.3078C111.263 70.8793 112.419 72.5508 113.833 73.3223C114.732 73.8366 115.503 73.9651 117.43 73.9651H119.871C120.514 73.9651 120.642 73.8365 120.642 73.708C120.771 73.4508 120.514 73.3223 120.385 73.3223ZM107.152 61.3647C106.381 61.879 105.482 62.0076 104.582 62.0076C103.04 62.0076 101.499 61.7504 100.985 61.4933C100.856 61.3647 100.728 61.2361 100.728 61.1076V50.05C100.728 49.7929 100.856 49.6643 100.985 49.6643C101.37 49.5357 102.27 49.4072 103.297 49.4072C106.895 49.4072 109.079 51.9787 109.079 56.2217C109.207 58.6646 108.308 60.4647 107.152 61.3647Z" fill="#0A3647"/>
<path d="M129.379 73.3225C129.122 73.3225 128.351 73.1939 127.837 73.1939C126.809 73.0653 126.681 72.2939 126.552 71.3939C126.424 69.9795 126.424 67.2794 126.424 64.065V58.1506C126.424 52.879 126.424 51.9789 126.552 50.8218C126.681 49.6646 126.938 49.0217 127.837 48.8931C128.223 48.7645 128.48 48.7645 128.737 48.7645C128.865 48.7645 128.994 48.636 128.994 48.5074C128.994 48.2502 128.865 48.2502 128.48 48.2502C127.452 48.2502 125.396 48.3788 125.139 48.3788C125.011 48.3788 122.826 48.2502 121.67 48.2502C121.285 48.2502 121.156 48.3788 121.156 48.5074C121.156 48.636 121.285 48.7645 121.413 48.7645C121.67 48.7645 122.056 48.7645 122.441 48.8931C123.212 49.0217 123.469 49.6646 123.597 50.8218C123.726 51.8504 123.726 52.879 123.726 58.1506V64.065C123.726 67.2794 123.726 69.9795 123.597 71.3939C123.469 72.4225 123.34 73.0653 122.57 73.1939C122.313 73.3225 121.799 73.3225 121.542 73.3225C121.285 73.3225 121.285 73.4511 121.285 73.5797C121.285 73.8368 121.413 73.8368 121.799 73.8368C122.826 73.8368 124.882 73.7082 125.139 73.7082C125.268 73.7082 127.452 73.8368 129.25 73.8368C129.636 73.8368 129.764 73.7082 129.764 73.5797C129.636 73.4511 129.636 73.3225 129.379 73.3225Z" fill="#0A3647"/>
<path d="M158.672 61.1079C157.645 61.1079 155.589 61.2365 155.332 61.2365C155.203 61.2365 153.019 61.1079 151.478 61.1079C151.092 61.1079 150.964 61.2365 150.964 61.3651C150.964 61.4937 151.092 61.6222 151.221 61.6222C151.478 61.6222 152.12 61.6222 152.377 61.7508C153.79 62.1365 153.919 62.5223 153.919 65.2223V71.0083C153.919 71.5226 153.662 71.9083 153.276 72.1654C152.377 72.6797 150.707 72.9369 149.422 72.9369C146.338 72.9369 143.255 71.9083 140.557 69.3368C139.4 68.1796 136.959 64.708 136.959 59.9507C136.959 55.9649 138.373 52.8791 140.3 51.3362C142.869 49.279 145.439 49.1504 147.495 49.1504C151.863 49.1504 154.561 50.5647 155.46 51.8505C155.974 52.6219 156.103 53.6505 156.231 54.0363C156.231 54.2934 156.36 54.5506 156.488 54.5506C156.745 54.5506 156.745 54.422 156.745 53.7791C156.745 50.4361 157.002 49.4075 157.002 49.0218C157.002 48.8932 156.874 48.7647 156.617 48.7647C155.717 48.7647 154.561 48.6361 153.919 48.3789C153.276 48.2503 150.835 47.8646 148.779 47.8646C146.21 47.8646 142.869 48.1218 139.786 50.0504C136.831 51.979 134.133 55.7077 134.133 61.1079C134.133 65.3509 136.06 68.951 138.116 70.7511C141.842 73.9655 146.595 74.3512 149.165 74.3512C151.092 74.3512 154.176 73.9655 156.36 72.8083C156.745 72.5512 156.745 72.5512 156.745 71.0083V67.2795C156.745 65.8652 156.745 64.8366 156.874 63.808C157.002 62.6508 157.259 62.0079 158.159 61.8794C158.544 61.7508 158.801 61.7508 159.058 61.7508C159.186 61.7508 159.315 61.6222 159.315 61.4936C159.186 61.2365 159.058 61.1079 158.672 61.1079Z" fill="#0A3647"/>
<path d="M190.409 73.3225C190.153 73.3225 189.382 73.1939 188.868 73.1939C187.84 73.0653 187.711 72.2939 187.583 71.3939C187.454 69.9795 187.454 67.2794 187.454 64.065V58.1506C187.454 52.879 187.454 51.9789 187.583 50.8218C187.711 49.6646 187.968 49.0217 188.868 48.8931C189.253 48.7645 189.51 48.7645 189.767 48.7645C189.896 48.7645 190.024 48.636 190.024 48.5074C190.024 48.2502 189.896 48.2502 189.51 48.2502C188.482 48.2502 186.427 48.3788 186.17 48.3788C186.041 48.3788 183.857 48.2502 182.315 48.2502C181.93 48.2502 181.801 48.3788 181.801 48.5074C181.801 48.636 181.93 48.7645 182.058 48.7645C182.315 48.7645 182.958 48.7645 183.215 48.8931C184.371 49.1503 184.628 49.6646 184.628 50.8218C184.756 51.8504 184.756 52.879 184.756 58.1506V58.922C184.756 59.0506 184.628 59.1792 184.499 59.1792H170.238C170.11 59.1792 169.981 59.1792 169.981 58.922V58.1506C169.981 52.879 169.981 51.9789 170.11 50.8218C170.238 49.6646 170.495 49.0217 171.395 48.8931C171.78 48.7645 172.037 48.7645 172.294 48.7645C172.422 48.7645 172.551 48.636 172.551 48.5074C172.551 48.2502 172.422 48.2502 172.037 48.2502C171.009 48.2502 168.953 48.3788 168.696 48.3788C168.568 48.3788 166.384 48.2502 164.842 48.2502C164.457 48.2502 164.328 48.3788 164.328 48.5074C164.328 48.636 164.457 48.7645 164.585 48.7645C164.842 48.7645 165.484 48.7645 165.741 48.8931C166.898 49.1503 167.155 49.6646 167.155 50.8218C167.283 51.8504 167.283 52.879 167.283 58.1506V64.065C167.283 67.2794 167.283 69.9795 167.155 71.3939C167.026 72.4225 166.898 73.0653 166.127 73.1939C165.87 73.3225 165.356 73.3225 165.099 73.3225C164.842 73.3225 164.842 73.4511 164.842 73.5797C164.842 73.8368 164.971 73.8368 165.356 73.8368C166.384 73.8368 168.439 73.7082 168.696 73.7082C168.825 73.7082 171.009 73.8368 172.808 73.8368C173.193 73.8368 173.322 73.7082 173.322 73.5797C173.322 73.4511 173.193 73.3225 173.065 73.3225C172.808 73.3225 172.037 73.1939 171.523 73.1939C170.495 73.0653 170.367 72.2939 170.238 71.3939C170.11 69.9795 170.11 67.2794 170.11 64.065V60.4649C170.11 60.3364 170.238 60.2078 170.367 60.2078H184.628C184.756 60.2078 184.885 60.3364 184.885 60.4649V64.065C184.885 67.2794 184.885 69.9795 184.756 71.3939C184.628 72.4225 184.499 73.0653 183.729 73.1939C183.472 73.3225 182.958 73.3225 182.701 73.3225C182.444 73.3225 182.444 73.4511 182.444 73.5797C182.444 73.8368 182.572 73.8368 182.958 73.8368C183.986 73.8368 186.041 73.7082 186.298 73.7082C186.427 73.7082 188.611 73.8368 190.409 73.8368C190.795 73.8368 190.923 73.7082 190.923 73.5797C190.666 73.4511 190.538 73.3225 190.409 73.3225Z" fill="#0A3647"/>
<path d="M215.46 48.1216C215.203 48.1216 214.304 48.5073 212.12 48.5073H199.529C199.143 48.5073 197.859 48.3787 196.831 48.3787C195.931 48.2501 195.546 47.993 195.289 47.993C195.161 47.993 195.032 48.3787 194.904 48.6359C194.775 48.893 194.133 51.8503 194.133 52.1074C194.133 52.3646 194.261 52.3646 194.261 52.3646C194.39 52.3646 194.518 52.236 194.647 51.9788C194.775 51.7217 194.904 51.4645 195.161 50.9502C195.675 50.1788 196.445 49.9216 198.63 49.9216L203.64 49.7931V64.0649C203.64 67.2793 203.64 69.9794 203.512 71.3938C203.383 72.4224 203.255 73.0653 202.484 73.1938C202.227 73.3224 201.713 73.3224 201.456 73.3224C201.199 73.3224 201.199 73.451 201.199 73.5796C201.199 73.8367 201.328 73.8367 201.713 73.8367C202.741 73.8367 204.797 73.7081 205.054 73.7081C205.182 73.7081 207.366 73.8367 209.165 73.8367C209.55 73.8367 209.679 73.7081 209.679 73.5796C209.679 73.451 209.55 73.3224 209.422 73.3224C209.165 73.3224 208.394 73.1938 207.88 73.1938C206.852 73.0653 206.724 72.2938 206.595 71.3938C206.467 69.9794 206.467 67.2793 206.467 64.0649V49.7931L210.707 49.9216C213.919 50.0502 214.69 50.8217 214.818 51.7217V52.1074C214.818 52.6217 214.947 52.6217 215.075 52.6217C215.203 52.6217 215.332 52.4931 215.332 52.236C215.332 51.8503 215.46 49.5359 215.46 48.5073C215.589 48.2501 215.589 48.1216 215.46 48.1216Z" fill="#0A3647"/>
<path d="M227.665 59.3075L226.765 58.5361C223.553 55.9646 222.654 54.8074 222.654 52.8787C222.654 50.4358 224.453 49.0215 226.765 49.0215C229.849 49.0215 230.748 50.4358 231.005 50.8215C231.262 51.2073 231.39 52.1073 231.39 52.493C231.39 52.7502 231.519 52.8787 231.647 52.8787C231.776 52.8787 231.904 52.6216 231.904 52.1073C231.904 49.7929 232.033 48.6358 232.033 48.5072C232.033 48.3786 231.904 48.25 231.647 48.25C231.39 48.25 231.133 48.25 230.491 48.1214C229.592 47.8643 228.692 47.7357 227.408 47.7357C223.168 47.7357 220.47 50.1787 220.47 53.7788C220.47 56.0931 221.241 58.1504 224.838 61.1076L226.38 62.3934C229.335 64.8363 230.234 66.1221 230.234 68.4364C230.234 70.6222 228.692 72.9366 225.352 72.9366C223.039 72.9366 220.855 72.0365 220.341 69.465C220.213 68.9507 220.213 68.565 220.213 68.1793C220.213 67.9221 220.213 67.7935 219.956 67.7935C219.827 67.7935 219.699 67.9221 219.699 68.3078C219.699 68.8221 219.57 70.2365 219.57 71.908C219.57 72.808 219.57 72.9366 220.084 73.1937C221.497 73.8366 223.039 74.0937 224.581 74.0937C226.38 74.0937 228.178 73.708 229.72 72.6794C232.033 71.0079 232.547 68.4364 232.547 67.0221C232.547 64.5791 231.647 62.5219 227.665 59.3075Z" fill="#0A3647"/>
<path d="M34.563 30.6357C34.6915 29.35 35.0769 28.7071 35.8478 28.5785C36.2332 28.45 36.7471 28.4499 37.2611 28.4499C37.6465 28.4499 37.9035 28.3214 37.9035 28.1928C37.9035 27.9356 37.6465 27.8071 37.1326 27.8071C36.6186 27.8071 35.7193 27.8071 34.4345 27.8071C33.1497 27.8071 32.3788 27.8071 32.1219 27.8071C31.8649 27.8071 31.094 27.8071 29.9377 27.8071C28.7814 27.8071 27.882 27.8071 27.2396 27.8071C26.7257 27.8071 26.4688 27.9356 26.4688 28.1928C26.4688 28.45 26.7257 28.4499 27.1111 28.4499C28.0105 28.4499 28.6529 28.5785 29.0383 28.8357C29.5523 29.0928 29.8092 29.7357 29.8092 30.6357C29.8092 31.4072 29.9377 33.9787 29.9377 38.3503V44.6505C29.9377 48.8935 29.9377 51.465 29.8092 52.365C29.6807 53.5222 29.2953 54.2937 28.7814 54.2937C28.3959 54.2937 28.0105 54.2937 27.7535 54.4222C27.2396 54.4222 26.9827 54.5508 26.9827 54.808C26.9827 55.0651 27.2396 55.1937 27.7535 55.1937C28.2675 55.1937 29.1668 55.1937 30.3231 55.1937C31.4795 55.1937 32.1219 55.1937 32.3788 55.1937C33.1497 55.1937 34.6915 55.1937 36.7471 55.3223C38.8028 55.4509 40.987 55.4509 42.9142 55.4509C43.685 55.4509 44.199 55.4509 44.3274 55.3223C44.7129 55.1937 45.0983 54.9365 45.2268 54.4222C45.6122 53.1365 45.7407 51.7222 45.7407 50.3078C45.7407 49.9221 45.6122 49.6649 45.4837 49.6649C45.2268 49.6649 45.0983 49.7935 45.0983 50.1793C44.9698 51.0793 44.7129 51.7222 44.1989 52.365C43.5566 53.0079 42.1433 53.3937 39.9591 53.3937C37.6465 53.3937 36.2332 53.1365 35.5908 52.6222C35.2054 52.365 35.0769 51.5936 34.9484 50.1793C34.8199 49.2792 34.8199 47.4792 34.8199 44.7791V38.4789C34.4345 33.9787 34.4345 31.4072 34.563 30.6357Z" fill="#0A3647"/>
<path d="M68.0975 34.3638C68.0975 33.2067 67.8405 32.178 67.1982 31.278C66.6842 30.5066 66.1703 29.8637 65.6564 29.478C64.1146 28.4494 61.9305 27.9351 58.9755 27.9351C58.59 27.9351 57.8191 27.9351 56.4059 27.9351C55.1211 27.9351 54.2217 27.9351 53.8363 27.9351C53.7078 27.9351 53.0654 27.9351 51.7806 27.9351C50.6243 27.9351 49.5965 27.9351 48.8256 27.9351C48.3117 27.9351 48.0547 28.0636 48.0547 28.3208C48.0547 28.5779 48.3116 28.5779 48.6971 28.5779C49.3395 28.5779 49.7249 28.5779 50.1104 28.7065C51.1382 28.9637 51.6521 29.6065 51.6521 30.7637C51.6521 31.5352 51.7806 34.1067 51.7806 38.4783V44.7785C51.7806 49.0215 51.7806 51.593 51.6521 52.493C51.5236 53.6502 51.1382 54.4216 50.6243 54.4216C50.2388 54.4216 49.8534 54.4217 49.5964 54.5502C49.0825 54.5502 48.8256 54.6788 48.8256 54.936C48.8256 55.1931 49.0825 55.3217 49.5964 55.3217C50.1104 55.3217 51.0097 55.3217 52.0376 55.3217C53.1939 55.3217 53.8363 55.3217 53.9648 55.3217C53.9648 55.3217 54.7356 55.3217 56.0204 55.3217C57.3052 55.3217 58.4615 55.3217 59.2324 55.3217C59.7463 55.3217 60.0033 55.1931 60.0033 54.936C60.0033 54.8074 59.8748 54.6788 59.6179 54.6788C59.1039 54.6788 58.59 54.6788 57.8191 54.5502C57.0483 54.4217 56.5343 53.7788 56.4059 52.6216C56.2774 51.593 56.2774 49.0215 56.2774 44.9071V44.2642C56.2774 44.007 56.4059 44.007 56.5344 44.007H59.6179C59.8748 44.007 60.1318 44.1356 60.2603 44.2642C61.6735 46.0642 62.8299 47.7357 63.8577 49.2786C66.0418 52.2359 67.5836 53.9074 68.8684 54.5502C69.7677 55.0645 71.0525 55.1931 72.7228 55.1931H76.1917C76.7056 55.1931 76.8341 55.0645 76.8341 54.8074C76.8341 54.6788 76.5772 54.5502 76.1917 54.4216C75.9348 54.4216 75.6778 54.4217 75.4209 54.2931C74.0076 54.0359 72.7228 53.2645 71.3095 51.8501C70.4102 50.9501 69.2538 49.5358 67.8405 47.7357C67.5836 47.4786 66.1703 45.6785 63.4722 42.3355C66.5558 39.8926 68.0975 37.1925 68.0975 34.3638ZM61.6735 41.5641C61.1596 41.9498 60.2603 42.207 59.1039 42.207C57.9476 42.207 57.0483 42.0784 56.4059 41.8212C56.1489 41.6927 56.0204 41.5641 56.0204 41.1784V30.1208C56.0204 29.8637 56.0204 29.7351 56.1489 29.7351C56.4059 29.6065 57.0483 29.478 58.2046 29.478C59.6179 29.478 60.7742 29.9923 61.802 30.8923C63.0868 32.0495 63.7292 33.8495 63.7292 36.1639C63.8577 38.7354 63.0868 40.5355 61.6735 41.5641Z" fill="#0A3647"/>
<path d="M0.385423 0.677185V40.4071L2.95502 33.8497V3.37726H79.272V79.7513H2.95502V53.7789L3.21199 53.0075L4.11135 50.436L5.6531 46.4501C5.78158 46.3216 5.78157 46.193 5.91005 46.193H14.0043C14.1328 46.193 14.2612 46.3216 14.3897 46.4501L17.3448 54.0361C17.4732 54.4218 17.3448 54.8076 16.9593 54.9361C16.5739 54.9361 16.4454 55.0647 16.4454 55.1933C16.4454 55.3219 16.8308 55.4504 17.4732 55.4504C19.015 55.4504 21.3276 55.579 24.2827 55.579C24.9251 55.579 25.3105 55.579 25.5674 55.4504C25.8244 55.4504 25.9529 55.3219 25.9529 55.1933C25.9529 54.9361 25.8244 54.9361 25.439 54.9361C24.7966 54.9361 24.4111 54.8076 23.8972 54.8076C22.7409 54.5504 21.7131 53.2647 20.6852 50.8217C16.9593 41.5643 14.0043 34.1069 11.6916 28.5781C11.3062 27.8067 11.0492 27.4209 10.7923 27.4209C10.5353 27.4209 10.1499 27.9352 9.76444 28.8353L6.9379 35.7783L6.42398 37.1927L5.0107 40.9214L4.75374 41.6928L2.69806 46.7073L1.54175 49.536L0.642398 51.7217C0.513919 51.9789 0.385423 52.236 0.385423 52.3646C0.256944 52.6218 0.12848 52.8789 0 53.0075V82.3228H81.4561V0.805749H0.385423V0.677185ZM7.32334 42.3357L7.83725 41.05L8.99358 37.9641L10.0214 35.1355C10.0214 34.8783 10.1499 34.7498 10.2784 34.7498C10.4069 34.7498 10.4068 34.8783 10.4068 35.1355L11.6916 38.7356L13.4904 43.7501L13.6188 44.0072C13.6188 44.1358 13.6188 44.1358 13.4904 44.1358C13.4904 44.1358 13.4904 44.1358 13.3619 44.1358H6.68094C6.55246 44.1358 6.55245 44.0072 6.55245 43.8786L7.32334 42.3357Z" fill="#0A3647"/>
</svg>
