<svg width="126" height="177" viewBox="0 0 126 177" fill="none" xmlns="http://www.w3.org/2000/svg">
<path fill-rule="evenodd" clip-rule="evenodd" d="M95.9682 47.8865L95.8127 95.7872H87.5092H79.2064V59.2507V22.7149L74.7849 20.5654L70.3635 18.4159V14.9102V11.4046L75.7061 8.94714C78.6449 7.59528 84.199 5.03277 88.0493 3.25228C91.8997 1.4718 95.2917 0.0085178 95.5864 2.12012e-06C95.8819 -0.00780392 96.0536 21.5411 95.9682 47.8865ZM61.8669 19.464C68.3399 22.4537 73.7393 24.9985 73.8645 25.1198C74.0429 25.2909 74.1534 63.2992 74.0598 92.0616L74.048 95.7872H67.4158H60.7836V65.9823C60.7836 49.5896 60.5567 36.1774 60.2789 36.1774C60.001 36.1774 57.5317 37.2951 54.7903 38.6612C52.049 40.0272 49.6231 41.1449 49.3998 41.1449C49.1758 41.1449 48.9931 34.8987 48.9931 27.2651C48.9931 19.6315 49.2421 13.53 49.5458 13.7067C49.8494 13.8834 55.3946 16.4743 61.8669 19.464ZM84.1805 23.4522C81.933 24.5947 81.4171 25.2511 81.4171 26.9692C81.4171 29.3628 82.0479 29.5373 85.1385 27.9981C86.913 27.1146 87.3124 26.4625 87.3124 24.4499C87.3124 23.0938 87.2291 21.9988 87.1282 22.0159C87.0272 22.0336 85.7008 22.6794 84.1805 23.4522ZM84.7288 29.6679C84.9292 29.8609 84.3486 30.374 83.4392 30.8083C82.3375 31.3342 81.7082 32.361 81.5549 33.8874C81.2911 36.5032 81.3405 36.5238 84.6558 35.1896C88.1687 33.7767 88.9321 29.279 85.6544 29.3067C84.9455 29.3124 84.5284 29.4756 84.7288 29.6679ZM83.9963 37.5236C82.4009 38.4199 81.7215 39.3935 81.5549 41.02C81.286 43.6422 81.2955 43.645 84.7082 42.0781C86.916 41.064 87.3124 40.524 87.3124 38.5299C87.3124 35.8666 87.0729 35.7942 83.9963 37.5236ZM56.3622 69.1757V95.7872H43.4662H30.5703V75.2133C30.5703 56.378 30.6794 54.577 31.8599 53.8915C32.8805 53.2996 55.4558 42.8346 56.1779 42.6196C56.2789 42.589 56.3622 54.5394 56.3622 69.1757ZM83.8121 44.5122C81.8305 45.4624 81.4171 46.067 81.4171 48.0149C81.4171 50.7556 81.3309 50.7258 84.7082 49.1745C86.916 48.1604 87.3124 47.6204 87.3124 45.6263C87.3124 42.9715 87.1407 42.9169 83.8121 44.5122ZM83.8121 51.6086C81.8305 52.5588 81.4171 53.1634 81.4171 55.1113C81.4171 57.852 81.3309 57.8222 84.7082 56.2709C86.916 55.2568 87.3124 54.7168 87.3124 52.7227C87.3124 50.0679 87.1407 50.0133 83.8121 51.6086ZM65.3893 52.2039C63.4984 53.0009 62.9944 53.6353 62.9944 55.2213C62.9944 57.9669 63.379 58.1543 66.306 56.8351C68.421 55.882 68.8454 55.31 68.8653 53.3862C68.8926 50.818 68.7762 50.7783 65.3893 52.2039ZM37.3867 56.576C35.5334 57.4645 34.9918 58.1763 34.9918 59.724C34.9918 61.9785 35.6557 62.1645 38.5511 60.7225C39.9976 60.0022 40.6122 59.1038 40.7367 57.5291C40.9335 55.0468 40.7109 54.9829 37.3867 56.576ZM83.8121 58.5907C81.9212 59.3876 81.4171 60.022 81.4171 61.6081C81.4171 64.3523 81.804 64.5432 84.7561 63.2545C86.9211 62.3092 87.3124 61.7805 87.3124 59.8028C87.3124 57.2027 87.2004 57.1643 83.8121 58.5907ZM65.3893 59.3003C63.4527 60.1164 62.9944 60.7168 62.9944 62.4362C62.9944 64.8448 63.6222 65.0208 66.7158 63.4801C68.3841 62.6498 68.8897 61.9069 68.8897 60.2867C68.8897 57.9236 68.7511 57.8846 65.3893 59.3003ZM45.4927 60.8339C43.5149 61.782 43.0978 62.3901 43.0978 64.3253V66.6693L45.677 65.4849C47.8582 64.4828 48.2562 63.9378 48.2562 61.948C48.2562 60.6543 48.1729 59.6161 48.0719 59.641C47.971 59.6658 46.8096 60.203 45.4927 60.8339ZM37.0183 64.2593C35.5098 65.0477 34.9918 65.856 34.9918 67.4243C34.9918 69.8428 35.2843 69.9165 38.3079 68.2588C39.8266 67.4257 40.5658 66.4365 40.6682 65.0953C40.837 62.8883 40.0072 62.6981 37.0183 64.2593ZM83.8121 65.6871C81.8659 66.5067 81.4171 67.1 81.4171 68.85C81.4171 70.7724 81.6331 70.9817 83.4289 70.7993C86.4451 70.4928 87.8312 69.065 87.4627 66.6451C87.1054 64.3012 87.1039 64.3012 83.8121 65.6871ZM65.438 66.3776C63.5161 67.1887 63.1034 67.755 63.155 69.5135C63.2272 71.9568 63.676 72.0902 66.7158 70.5765C68.3841 69.7462 68.8897 69.0033 68.8897 67.3831C68.8897 65.025 68.7452 64.9831 65.438 66.3776ZM45.1243 68.5172C43.6158 69.3056 43.0978 70.1138 43.0978 71.6821C43.0978 74.1176 43.1855 74.1481 46.0823 72.7054C47.7506 71.8752 48.2562 71.1322 48.2562 69.5121C48.2562 67.1255 47.9651 67.0333 45.1243 68.5172ZM37.3867 71.5189C35.3927 72.4415 34.9918 73.0234 34.9918 74.9962V77.3656L37.7729 75.9989C39.7773 75.0146 40.5975 74.1283 40.7095 72.8268C40.9143 70.4424 40.2651 70.1869 37.3867 71.5189ZM84.549 72.1384C81.9941 73.5712 81.4171 74.2773 81.4171 75.9705C81.4171 78.3194 81.5218 78.3584 84.801 77.2166C86.9182 76.4793 87.2122 76.0436 87.4377 73.3136C87.577 71.6232 87.689 70.2721 87.686 70.3111C87.6831 70.3502 86.2712 71.1726 84.549 72.1384ZM65.0651 73.4626C63.5611 74.2489 63.1241 74.9692 63.2545 76.4502C63.3871 77.9589 63.7526 78.3449 64.8683 78.1526C67.7261 77.6601 68.8897 76.5957 68.8897 74.4732C68.8897 72.125 68.0488 71.9021 65.0651 73.4626ZM45.4927 75.7363C43.5149 76.6844 43.0978 77.2925 43.0978 79.2277V81.5717L45.677 80.3873C47.8582 79.3853 48.2562 78.8403 48.2562 76.8504C48.2562 75.5568 48.1729 74.5186 48.0719 74.5434C47.971 74.5682 46.8096 75.1054 45.4927 75.7363ZM37.0183 79.1618C35.5098 79.9502 34.9918 80.7584 34.9918 82.3267C34.9918 84.7878 34.8112 84.7296 38.218 83.3593C40.4405 82.4644 40.8871 81.9308 40.8871 80.1659C40.8871 77.7929 40.0529 77.5764 37.0183 79.1618ZM83.4436 79.8714C81.9352 80.6598 81.4171 81.4681 81.4171 83.0364C81.4171 85.4123 81.9168 85.5535 85.3788 84.1604C87.5401 83.2911 87.7804 82.9257 87.4819 80.9671C87.1076 78.5075 86.4141 78.3194 83.4436 79.8714Z" fill="#0A3647"/>
<path d="M45.4557 115.373L35.8201 147.284H30.9546L23.227 121.6L15.2133 147.284L10.3955 147.33L1.09375 115.373H5.72075L12.9713 142.431L20.9851 115.373H25.8506L33.4828 142.34L40.781 115.373H45.4557Z" fill="#0A3647"/>
<path d="M58.5159 115.373V147.284H54.1751V115.373H58.5159Z" fill="#0A3647"/>
<path d="M83.3726 147.605C81.1784 147.605 79.2067 147.238 77.4577 146.506C75.7404 145.743 74.3889 144.705 73.4031 143.393C72.4173 142.05 71.9085 140.508 71.8767 138.769H76.5037C76.6627 140.264 77.2987 141.531 78.4117 142.569C79.5565 143.576 81.2102 144.079 83.3726 144.079C85.4397 144.079 87.0615 143.591 88.2381 142.614C89.4465 141.607 90.0508 140.325 90.0508 138.769C90.0508 137.548 89.701 136.556 89.0013 135.793C88.3017 135.03 87.4272 134.45 86.3778 134.053C85.3284 133.656 83.9132 133.229 82.1324 132.771C79.9381 132.222 78.1732 131.672 76.8376 131.123C75.5337 130.573 74.4048 129.719 73.4508 128.559C72.5286 127.369 72.0675 125.781 72.0675 123.797C72.0675 122.058 72.5286 120.516 73.4508 119.173C74.373 117.83 75.6609 116.793 77.3146 116.06C79 115.328 80.924 114.961 83.0864 114.961C86.2029 114.961 88.7469 115.709 90.7186 117.205C92.722 118.7 93.851 120.684 94.1054 123.156H89.3352C89.1762 121.936 88.5084 120.867 87.3318 119.952C86.1552 119.005 84.5969 118.532 82.6571 118.532C80.8445 118.532 79.3657 118.99 78.2209 119.906C77.0761 120.791 76.5037 122.042 76.5037 123.66C76.5037 124.82 76.8376 125.766 77.5054 126.499C78.205 127.231 79.0477 127.796 80.0335 128.193C81.0512 128.559 82.4663 128.986 84.2789 129.475C86.4732 130.055 88.2381 130.634 89.5738 131.214C90.9094 131.764 92.0542 132.634 93.0082 133.824C93.9622 134.984 94.4393 136.571 94.4393 138.585C94.4393 140.142 94.0099 141.607 93.1513 142.981C92.2927 144.354 91.0207 145.468 89.3352 146.323C87.6498 147.177 85.6623 147.605 83.3726 147.605Z" fill="#0A3647"/>
<path d="M112.085 118.761V129.429H124.201V132.863H112.085V143.851H125.632V147.284H107.744V115.328H125.632V118.761H112.085Z" fill="#0A3647"/>
<path d="M43.2737 168.895L40.1648 177H39.5776L36.4688 168.895H37.0905L39.3934 174.893C39.4586 175.067 39.52 175.237 39.5776 175.403C39.6352 175.566 39.6889 175.723 39.7388 175.875C39.7887 176.026 39.8328 176.172 39.8712 176.313C39.9096 176.172 39.9518 176.03 39.9979 175.886C40.0478 175.738 40.1015 175.583 40.1591 175.42C40.2166 175.254 40.28 175.076 40.349 174.888L42.6461 168.895H43.2737Z" fill="#0A3647"/>
<path d="M53.5973 177V168.895H54.1903V177H53.5973Z" fill="#0A3647"/>
<path d="M68.8318 177H64.2319V168.895H68.8318V169.41H64.8248V172.482H68.6073V172.997H64.8248V176.484H68.8318V177Z" fill="#0A3647"/>
<path d="M89.6737 168.895L87.3766 177H86.8009L84.9989 170.879C84.9567 170.75 84.9183 170.628 84.8838 170.513C84.8531 170.395 84.8224 170.284 84.7917 170.181C84.7648 170.074 84.7379 169.974 84.7111 169.881C84.688 169.785 84.6688 169.698 84.6535 169.621C84.6381 169.698 84.6209 169.782 84.6017 169.87C84.5863 169.955 84.5671 170.044 84.5441 170.136C84.5211 170.229 84.4961 170.325 84.4693 170.425C84.4424 170.525 84.4136 170.628 84.3829 170.735L82.5867 177H82.0052L79.7369 168.895H80.3472L81.9304 174.611C81.9726 174.762 82.011 174.906 82.0455 175.043C82.0839 175.18 82.1184 175.313 82.1491 175.442C82.1798 175.568 82.2086 175.692 82.2355 175.814C82.2662 175.932 82.2931 176.052 82.3161 176.174C82.343 176.052 82.3698 175.928 82.3967 175.802C82.4236 175.677 82.4524 175.549 82.4831 175.42C82.5176 175.291 82.5521 175.158 82.5867 175.021C82.6251 174.88 82.6673 174.734 82.7133 174.583L84.3656 168.895H84.9586L86.6742 174.616C86.7203 174.775 86.7625 174.925 86.8009 175.065C86.8393 175.206 86.8738 175.34 86.9045 175.47C86.9352 175.596 86.964 175.719 86.9909 175.841C87.0177 175.96 87.0446 176.08 87.0715 176.202C87.1022 176.035 87.1329 175.873 87.1636 175.714C87.1981 175.551 87.2384 175.381 87.2845 175.204C87.3305 175.026 87.3824 174.832 87.4399 174.622L89.0577 168.895H89.6737Z" fill="#0A3647"/>
<path d="M0.359375 155.411H125.634V156.83H0.359375V155.411Z" fill="#0A3647"/>
</svg>
