<svg width="256" height="73" viewBox="0 0 256 73" fill="none" xmlns="http://www.w3.org/2000/svg">
<path d="M22.7333 13.9665C22.4683 14.0544 22.191 14.0993 21.9119 14.0995C21.6086 14.1254 21.3056 14.0482 21.0518 13.8806C20.898 13.7367 20.7802 13.5588 20.7077 13.3613C20.0397 11.7131 19.1796 10.5285 18.1274 9.80744C17.0752 9.08636 15.6747 8.72583 13.9258 8.72583C12.6631 8.69033 11.4214 9.05385 10.3779 9.76452C9.42321 10.4298 8.95016 11.4556 8.95016 12.8419C8.93524 13.3233 9.02387 13.8022 9.21007 14.2464C9.39628 14.6906 9.67572 15.0899 10.0296 15.4172C10.8702 16.1079 11.8039 16.6772 12.8034 17.1083C13.9258 17.6019 15.1257 18.0783 16.3943 18.5376C17.6529 18.9748 18.8587 19.5507 19.9895 20.2544C21.0921 20.9272 22.0367 21.8289 22.7591 22.8983C23.548 24.1312 23.9313 25.5793 23.8557 27.0402C23.8567 28.1332 23.6675 29.218 23.2966 30.2464C22.9167 31.3029 22.3038 32.2607 21.5033 33.0491C20.6138 33.8809 19.569 34.5299 18.4285 34.9591C16.9984 35.4398 15.4945 35.6651 13.986 35.6244C12.2655 35.6478 10.5493 35.4458 8.88135 35.0235C7.60264 34.6724 6.35775 34.2085 5.16142 33.6372C5.07541 32.3925 4.92919 31.1821 4.73137 29.9975C4.53355 28.8128 4.35723 27.6154 4.125 26.4865C4.44364 26.3666 4.78224 26.3084 5.12272 26.3148C5.39923 26.2945 5.67428 26.3703 5.90111 26.5295C6.10867 26.6972 6.25893 26.9252 6.33116 27.1819C6.65521 28.174 7.07429 29.1327 7.5826 30.0447C8.00402 30.7782 8.54464 31.4367 9.18238 31.9933C9.79545 32.4896 10.5016 32.8588 11.2595 33.0792C12.1641 33.3197 13.0974 33.4352 14.0333 33.4226C14.8115 33.4397 15.5867 33.3236 16.3255 33.0792C16.9066 32.8538 17.4361 32.5137 17.8823 32.0791C18.2881 31.674 18.5994 31.1845 18.794 30.6456C18.9941 30.1057 19.0961 29.5344 19.095 28.9588C19.1259 28.4263 19.0459 27.8932 18.8601 27.3931C18.6743 26.893 18.3868 26.4368 18.0156 26.053C17.2636 25.2912 16.3656 24.6884 15.3751 24.2804C14.2586 23.7589 13.1094 23.3102 11.9347 22.937C10.7459 22.513 9.60099 21.9754 8.51581 21.3317C7.48308 20.6707 6.58676 19.8184 5.8753 18.8208C5.18292 17.7822 4.83888 16.3915 4.83888 14.6618C4.82808 13.5637 5.03412 12.4742 5.44525 11.4556C5.86581 10.4608 6.50343 9.57225 7.31167 8.85459C8.15583 8.08154 9.14143 7.47821 10.2145 7.07766C11.4809 6.62795 12.8185 6.41126 14.1624 6.43814C15.3842 6.43854 16.6024 6.56948 17.7963 6.82872C19.2301 7.14113 20.6355 7.57182 21.9979 8.11635C22.0552 8.97477 22.1412 9.95623 22.2559 11.0607C22.4021 12.1338 22.5569 13.0995 22.7333 13.9665ZM47.5514 9.11641V31.9032C47.5503 32.1499 47.5646 32.3965 47.5944 32.6414C47.6656 32.8285 47.7859 32.9931 47.9428 33.1178C48.1638 33.2879 48.4126 33.4186 48.6782 33.5041C49.1197 33.6181 49.5678 33.7056 50.0199 33.7659C50.2036 33.7792 50.3747 33.864 50.4963 34.0022C50.6178 34.1403 50.6799 34.3206 50.6693 34.5042C50.6654 34.6339 50.651 34.7631 50.6263 34.8905C50.6297 35.0347 50.6152 35.1789 50.5833 35.3197C49.6587 35.2639 48.6652 35.2038 47.5729 35.148C46.4806 35.0922 45.6119 35.1051 44.8034 35.1051C43.9949 35.1051 43.0316 35.1051 41.9909 35.148L39.1353 35.324C39.0692 35.1885 39.0243 35.0438 39.002 34.8948V34.5085C38.9944 34.3448 39.0253 34.1816 39.0923 34.032C39.1669 33.9433 39.2587 33.8706 39.3622 33.8183C39.4656 33.7659 39.5787 33.7349 39.6944 33.7273C40.7652 33.5814 41.4146 33.3968 41.6855 33.165C41.843 32.9982 41.9629 32.7997 42.0371 32.5827C42.1112 32.3658 42.138 32.1356 42.1156 31.9074V9.11641H38.2752C37.5741 9.10237 36.8745 9.1891 36.1981 9.37393C35.6614 9.51437 35.1603 9.76589 34.7273 10.1122C34.2819 10.4751 33.901 10.9104 33.6006 11.3998C33.2365 12.0153 32.9091 12.6516 32.6201 13.3055C32.5665 13.4303 32.475 13.5351 32.3584 13.6052C32.2419 13.6753 32.1063 13.7071 31.9707 13.6961C31.7659 13.6916 31.5623 13.6628 31.3643 13.6102C31.1321 13.5201 30.9601 13.4514 30.844 13.3913C31.0461 12.7003 31.2181 12.1037 31.3643 11.5715C31.5106 11.0393 31.6224 10.4899 31.7084 9.97054C31.8245 9.30526 31.9105 8.71295 31.9707 8.19361C32 7.81051 32.0721 7.43188 32.1857 7.06479C32.2466 6.93655 32.346 6.83043 32.4701 6.7612C32.5942 6.69197 32.7368 6.66306 32.8781 6.6785C33.1964 6.6785 33.8156 6.72142 34.7402 6.80726C35.6648 6.8931 36.8303 6.93602 38.1806 6.93602H51.5122C52.8023 6.93602 53.9248 6.8931 54.8451 6.80726C55.7654 6.72142 56.4492 6.6785 56.7932 6.6785C56.9336 6.66956 57.0736 6.70126 57.1964 6.76978C57.3192 6.8383 57.4196 6.94073 57.4856 7.06479C57.5971 7.43095 57.6564 7.81094 57.6619 8.19361C57.7323 8.79059 57.8327 9.38365 57.9629 9.97054C58.0489 10.4899 58.1521 11.0221 58.2683 11.5715C58.3844 12.1209 58.5994 12.7003 58.8316 13.3913L58.2683 13.6102C58.0851 13.6637 57.8957 13.6925 57.7049 13.6961C57.5641 13.7041 57.424 13.6715 57.3012 13.6023C57.1785 13.533 57.0783 13.43 57.0125 13.3055C56.7152 12.6445 56.3672 12.0074 55.9718 11.3998C55.6897 10.8973 55.306 10.4588 54.8451 10.1122C54.4201 9.75359 53.9161 9.5006 53.3743 9.37393C52.7273 9.18877 52.0561 9.10195 51.3832 9.11641H47.5514ZM77.6248 25.5766H68.5335L66.2844 31.5855C66.1955 31.7316 66.1356 31.8933 66.1081 32.062C66.0856 32.1911 66.0713 32.3216 66.0651 32.4525C66.0648 32.6084 66.1041 32.7618 66.1793 32.8984C66.2545 33.035 66.3632 33.1503 66.4951 33.2337C67.0861 33.522 67.724 33.7023 68.3787 33.7659C68.783 33.826 68.9851 34.0964 68.9851 34.59C68.9793 34.8368 68.9505 35.0825 68.8991 35.324C68.1164 35.2682 67.295 35.2081 66.4306 35.1523C65.5662 35.0965 64.7104 35.1094 63.8761 35.1094C63.2998 35.1094 62.6935 35.1094 62.057 35.1523C61.4205 35.1952 60.7152 35.2381 59.9369 35.324C59.8772 35.2041 59.8477 35.0715 59.8508 34.9377V34.59C59.8508 34.0406 60.0358 33.7316 60.4142 33.7316C61.0708 33.6326 61.7105 33.4434 62.315 33.1693C62.7426 32.9419 63.0795 32.5754 63.2697 32.1306L73.6855 7.1678C73.7629 6.95504 73.9037 6.77105 74.089 6.64059C74.2743 6.51014 74.4952 6.43948 74.722 6.43814C74.8664 6.43782 75.0105 6.4522 75.152 6.48106C75.3121 6.48157 75.4718 6.49593 75.6294 6.52398L86.0624 32.2766C86.2502 32.7255 86.6068 33.083 87.0558 33.2723C87.5709 33.4802 88.1096 33.6243 88.6599 33.7015C88.8587 33.7324 89.0376 33.8392 89.1588 33.9994C89.28 34.1597 89.334 34.3607 89.3092 34.56C89.3058 34.8213 89.2756 35.0816 89.2189 35.3368L86.4924 35.1652C85.5979 35.1351 84.7722 35.1222 83.9852 35.1222H82.5102L80.7384 35.2081C80.132 35.2381 79.5256 35.251 78.9192 35.251L77.4485 35.3368C77.3875 35.2173 77.3565 35.0847 77.3582 34.9505V34.6029C77.3409 34.406 77.3876 34.2088 77.4915 34.0406C77.5738 33.9176 77.6949 33.8255 77.8355 33.7788C78.4021 33.6883 78.9553 33.5283 79.4826 33.3024C79.649 33.2285 79.7903 33.1082 79.8895 32.9558C79.9887 32.8035 80.0416 32.6257 80.0417 32.444C80.0325 32.2226 79.9889 32.0039 79.9127 31.7959L77.6248 25.5766ZM76.7991 23.4306L73.1093 13.666L69.342 23.4134L76.7991 23.4306ZM100.994 23.2546L94.1129 10.1293C93.8592 9.58069 93.4294 9.13213 92.8916 8.85459C92.3168 8.58998 91.7047 8.41484 91.0768 8.33525C90.7284 8.3052 90.5564 8.01763 90.5564 7.47683V7.29656C90.556 7.2075 90.5705 7.11901 90.5994 7.03474L90.6424 6.73429C91.2789 6.79009 92.0874 6.85018 93.0679 6.90598C94.0484 6.96178 95.1751 6.9489 96.3578 6.9489H97.7855C98.3618 6.91885 98.9381 6.90598 99.5057 6.90598L101.106 6.82014C101.626 6.79009 102.043 6.76005 102.361 6.73429C102.407 6.91866 102.436 7.10689 102.447 7.29656V7.51116C102.447 8.00476 102.275 8.27945 101.927 8.33525C101.388 8.36574 100.86 8.49829 100.37 8.72583C100.247 8.77316 100.14 8.85586 100.063 8.96354C99.9869 9.07121 99.944 9.19906 99.9401 9.33101C99.9693 9.65395 100.074 9.96557 100.245 10.2409L105.32 20.293L110.3 10.9363C110.574 10.5219 110.738 10.0449 110.777 9.54991C110.785 9.39254 110.743 9.23677 110.657 9.1044C110.572 8.97203 110.447 8.86968 110.3 8.81167C109.776 8.57697 109.221 8.41661 108.653 8.33525C108.279 8.27945 108.094 8.00476 108.094 7.51116C108.117 7.24925 108.16 6.98951 108.223 6.73429C108.829 6.79009 109.577 6.85018 110.472 6.90598C111.367 6.96178 112.192 6.9489 112.897 6.9489C113.603 6.9489 114.252 6.9489 114.975 6.90598C115.697 6.86306 116.475 6.82014 117.224 6.73429C117.278 6.90225 117.309 7.07712 117.314 7.25364V7.51116C117.314 8.03051 117.138 8.3052 116.794 8.33525C116.05 8.40091 115.324 8.59099 114.643 8.89751C114.209 9.16289 113.852 9.53729 113.607 9.98341L106.447 23.1516V31.7615C106.438 32.0265 106.481 32.2906 106.576 32.5384C106.676 32.7587 106.843 32.9419 107.053 33.062C107.332 33.2362 107.631 33.376 107.943 33.4784C108.348 33.5685 108.868 33.6543 109.504 33.7402C109.643 33.7673 109.765 33.8455 109.848 33.9591C109.965 34.0449 110.025 34.2466 110.025 34.5643C110.02 34.6378 110.005 34.7103 109.977 34.7789V34.9978L109.934 35.2982C109.474 35.2982 109.04 35.2982 108.644 35.2553C108.249 35.2124 107.836 35.2553 107.436 35.2124C106.739 35.1566 106.021 35.1265 105.286 35.1265C104.55 35.1265 103.961 35.0836 103.466 35.0836C102.972 35.0836 102.344 35.0836 101.652 35.1265C100.959 35.1694 100.336 35.1566 99.7036 35.2124C99.3251 35.2424 98.951 35.2553 98.5768 35.2553C98.2027 35.2553 97.8715 35.2982 97.4931 35.2982L97.4501 34.9978C97.4263 34.927 97.4118 34.8534 97.4071 34.7789V34.5643C97.3797 34.3538 97.4253 34.1402 97.5361 33.9591C97.6424 33.8496 97.7784 33.7735 97.9275 33.7402C98.5338 33.6243 99.037 33.5213 99.4412 33.4354C99.7683 33.347 100.088 33.2322 100.396 33.0921C100.605 32.9706 100.772 32.7878 100.873 32.5684C100.968 32.3206 101.011 32.0565 101.002 31.7916L100.994 23.2546ZM133.372 31.4439C133.372 32.0491 133.759 32.4568 134.538 32.6586C135.812 32.9042 137.111 33.0049 138.408 32.959H140.055C140.683 32.9696 141.309 32.8975 141.917 32.7444C142.449 32.5794 142.937 32.2978 143.345 31.9203C143.776 31.4988 144.137 31.0103 144.412 30.4739C144.796 29.7844 145.128 29.067 145.405 28.3278C145.491 28.0961 145.71 27.9845 146.054 27.9845C146.235 27.9927 146.411 28.0365 146.575 28.1132L147.181 28.3708C146.949 29.2979 146.751 30.3065 146.532 31.4053C146.312 32.504 146.201 33.5256 146.054 34.5686C146.024 34.9119 145.925 35.1308 145.753 35.2167C145.609 35.302 145.444 35.3465 145.276 35.3454C145.044 35.3454 144.713 35.3454 144.278 35.3025L142.936 35.2167C142.446 35.2167 141.943 35.2167 141.423 35.1737C140.902 35.1308 140.498 35.1308 140.133 35.1308H130.306C129.446 35.1308 128.504 35.1308 127.407 35.1737C126.311 35.2167 125.373 35.2896 124.505 35.3454C124.444 35.2106 124.415 35.0639 124.419 34.9162V34.487C124.419 34.0578 124.565 33.8217 124.849 33.7917C125.651 33.6738 126.436 33.4561 127.184 33.1436C127.417 33.0417 127.614 32.8703 127.746 32.653C127.878 32.4356 127.94 32.1827 127.923 31.9289V10.198C127.931 9.9643 127.901 9.73088 127.833 9.50699C127.775 9.30151 127.655 9.1188 127.489 8.98335C127.244 8.8095 126.964 8.69221 126.668 8.63999C126.2 8.49731 125.721 8.39534 125.236 8.33525C124.947 8.2494 124.806 8.00475 124.806 7.6013V7.21072C124.802 7.04775 124.831 6.8857 124.892 6.73429C125.816 6.79009 126.797 6.85018 127.833 6.90598C128.87 6.96178 129.798 6.9489 130.607 6.9489H131.992C132.508 6.91885 133.045 6.90598 133.591 6.90598L135.282 6.82014L136.838 6.73429C136.869 6.89119 136.884 7.05085 136.881 7.21072C136.906 7.33951 136.921 7.47015 136.924 7.6013C136.924 8.00475 136.782 8.2494 136.494 8.33525C135.236 8.50121 134.397 8.72726 133.979 9.0134C133.77 9.15265 133.603 9.34615 133.496 9.57305C133.389 9.79995 133.346 10.0516 133.372 10.301V31.4439ZM178.282 24.4092C178.296 25.9412 178.121 27.4692 177.762 28.9588C177.442 30.2669 176.821 31.4824 175.947 32.5083C175.015 33.5539 173.831 34.3443 172.507 34.8046C170.788 35.401 168.975 35.6788 167.157 35.6244C164.577 35.6244 162.499 35.3383 160.925 34.766C159.536 34.3011 158.286 33.497 157.287 32.4268C156.45 31.4107 155.872 30.2076 155.601 28.9201C155.305 27.4944 155.161 26.0412 155.171 24.5851V10.198C155.198 9.95737 155.159 9.71408 155.06 9.49309C154.961 9.2721 154.805 9.08136 154.608 8.94043C154.232 8.68291 153.468 8.48118 152.316 8.33525C151.998 8.27802 151.838 8.00332 151.838 7.51116V7.1678C151.84 7.02063 151.869 6.87505 151.924 6.73859C152.763 6.79438 153.645 6.85447 154.565 6.91027C155.485 6.96607 156.642 6.95319 157.941 6.95319C158.953 6.95319 160.007 6.93888 161.102 6.91027C162.198 6.85447 163.179 6.79438 164.043 6.73859C164.074 6.87965 164.09 7.02348 164.091 7.1678C164.114 7.28089 164.129 7.39573 164.134 7.51116C164.134 8.00332 163.974 8.27802 163.656 8.33525C162.818 8.38851 161.996 8.59357 161.231 8.94043C161.028 9.07813 160.865 9.26697 160.758 9.48781C160.652 9.70865 160.605 9.95366 160.624 10.198V23.628C160.624 26.6325 161.173 28.9216 162.271 30.4953C163.37 32.0691 165.288 32.8489 168.026 32.8345C170.801 32.8345 172.763 32.1192 173.913 30.6885C175.063 29.2578 175.655 26.8757 175.689 23.5422V10.2366C175.708 9.99229 175.662 9.74728 175.555 9.52644C175.449 9.30559 175.286 9.11676 175.083 8.97906C174.365 8.63197 173.586 8.42648 172.79 8.37388C172.442 8.28803 172.27 8.01334 172.27 7.54979V7.20643C172.3 7.06049 172.326 6.91456 172.356 6.77721C173.216 6.86306 173.956 6.91885 174.653 6.9489C175.349 6.97894 176.136 6.99182 176.945 6.99182C177.869 6.99182 178.691 6.99182 179.413 6.9489C180.136 6.90598 180.841 6.86306 181.533 6.77721C181.563 6.91842 181.577 7.06226 181.576 7.20643C181.602 7.31914 181.617 7.43418 181.619 7.54979C181.619 8.01334 181.447 8.28803 181.099 8.37388C180.333 8.3917 179.581 8.58557 178.902 8.94043C178.698 9.07813 178.535 9.26697 178.429 9.48781C178.322 9.70865 178.276 9.95366 178.295 10.198L178.282 24.4092ZM213.774 31.989C214.067 32.4588 214.487 32.8355 214.987 33.0749C215.758 33.3401 216.558 33.5144 217.369 33.5942C217.553 33.635 217.715 33.7404 217.826 33.8911C217.938 34.0417 217.991 34.2274 217.976 34.414C217.969 34.5578 217.955 34.701 217.933 34.8432C217.937 35.0034 217.921 35.1634 217.886 35.3197L216.243 35.2338L214.467 35.148C213.89 35.148 213.327 35.148 212.781 35.1051H211.396C210.473 35.1051 209.391 35.1194 208.149 35.148C206.908 35.1766 205.752 35.2338 204.683 35.3197C204.625 35.1993 204.595 35.0671 204.597 34.9334V34.5857C204.578 34.3756 204.623 34.1647 204.726 33.9805C204.832 33.8702 204.968 33.794 205.117 33.7616C205.707 33.6671 206.284 33.5073 206.838 33.2852C206.995 33.2343 207.134 33.1361 207.234 33.004C207.334 32.872 207.391 32.7124 207.397 32.547C207.366 32.2109 207.23 31.8928 207.01 31.637L201.522 23.0228L196.104 30.9031C195.9 31.1787 195.712 31.4653 195.54 31.7615C195.434 31.992 195.375 32.2417 195.368 32.4955C195.374 32.661 195.425 32.8218 195.517 32.9598C195.609 33.0977 195.738 33.2074 195.888 33.2766C196.429 33.5062 196.997 33.6663 197.579 33.7531C197.726 33.7864 197.861 33.8626 197.966 33.9719C198.082 34.0578 198.138 34.2595 198.138 34.5771V34.9248C198.141 35.0586 198.111 35.1912 198.052 35.3111C197.303 35.2553 196.465 35.1952 195.54 35.1394C194.616 35.0836 193.854 35.0965 193.162 35.0965C192.47 35.0965 191.717 35.0965 190.909 35.1394C190.1 35.1823 189.296 35.2252 188.487 35.3111C188.428 35.1912 188.398 35.0586 188.401 34.9248V34.5342C188.401 34.0406 188.586 33.7702 188.96 33.7101C189.649 33.5978 190.317 33.3837 190.943 33.0749C191.461 32.853 191.908 32.492 192.233 32.0319L199.94 20.8725L192.693 9.80744C192.416 9.38901 192.025 9.05837 191.566 8.85459C190.849 8.571 190.089 8.40995 189.317 8.37817C188.913 8.34812 188.711 8.06055 188.711 7.51975V7.17638C188.713 7.02921 188.742 6.88364 188.797 6.74717L190.268 6.83301L191.958 6.91885C192.534 6.91885 193.067 6.91885 193.558 6.96177H196.241C196.822 6.93173 197.428 6.91885 198.06 6.91885L200.008 6.83301L201.729 6.74717C201.758 6.88838 201.772 7.03221 201.772 7.17638C201.797 7.2891 201.812 7.40414 201.815 7.51975C201.815 8.03909 201.643 8.31379 201.294 8.34383C199.861 8.46115 199.144 8.77876 199.144 9.29668C199.177 9.64524 199.311 9.97652 199.531 10.2495L204.262 17.8337L209.143 10.7302C209.286 10.522 209.416 10.3056 209.534 10.0821C209.639 9.91291 209.699 9.71906 209.706 9.51987C209.706 8.97048 208.989 8.5799 207.556 8.34812C207.177 8.31808 206.992 8.04338 206.992 7.52404V7.18067C207.022 7.03474 207.048 6.88881 207.078 6.75146C207.938 6.8373 208.819 6.89453 209.719 6.92315C210.643 6.95319 211.439 6.96607 212.058 6.96607C212.893 6.96607 213.688 6.96607 214.437 6.92315C215.185 6.88022 215.894 6.8373 216.557 6.75146C216.587 6.90836 216.602 7.06802 216.6 7.22789C216.626 7.3406 216.64 7.45564 216.643 7.57125C216.657 7.78804 216.596 8.00308 216.471 8.18073C216.366 8.28896 216.231 8.36366 216.084 8.39534C215.38 8.44678 214.691 8.62263 214.049 8.91468C213.527 9.15063 213.081 9.52652 212.759 10.0006L205.745 19.8724L213.774 31.989ZM248.608 31.989C248.901 32.4588 249.321 32.8355 249.821 33.0749C250.591 33.3402 251.389 33.5145 252.199 33.5942C252.349 33.623 252.486 33.6981 252.59 33.8088C252.669 33.8872 252.73 33.9823 252.767 34.087C252.804 34.1918 252.817 34.3035 252.806 34.414C252.801 34.5579 252.786 34.7013 252.763 34.8432C252.767 35.0032 252.753 35.1631 252.72 35.3197L251.077 35.2338L249.301 35.148C248.724 35.148 248.161 35.148 247.611 35.1051H246.226C245.301 35.1051 244.222 35.1051 242.979 35.148C241.736 35.1909 240.614 35.2338 239.538 35.3197C239.48 35.1993 239.451 35.0671 239.452 34.9334V34.5857C239.433 34.3756 239.478 34.1647 239.581 33.9805C239.687 33.8702 239.823 33.794 239.973 33.7616C240.562 33.6681 241.139 33.5083 241.693 33.2852C241.851 33.2344 241.99 33.1364 242.091 33.0044C242.192 32.8724 242.249 32.7128 242.256 32.547C242.225 32.2109 242.09 31.8928 241.869 31.637L236.352 23.0228L230.938 30.9031C230.733 31.1777 230.544 31.4643 230.374 31.7615C230.266 31.9913 230.207 32.2415 230.202 32.4955C230.208 32.661 230.259 32.8218 230.351 32.9598C230.443 33.0977 230.572 33.2074 230.722 33.2766C231.262 33.5057 231.828 33.6658 232.408 33.7531C232.558 33.7854 232.694 33.8616 232.8 33.9719C232.916 34.0578 232.972 34.2595 232.972 34.5771V34.9248C232.973 35.0585 232.944 35.1908 232.886 35.3111C232.133 35.2553 231.299 35.1952 230.374 35.1394C229.45 35.0836 228.688 35.0965 227.996 35.0965C227.304 35.0965 226.551 35.0965 225.743 35.1394C224.934 35.1823 224.126 35.2252 223.317 35.3111C223.259 35.1908 223.229 35.0585 223.231 34.9248V34.5342C223.231 34.0406 223.42 33.7702 223.794 33.7101C224.483 33.5971 225.151 33.383 225.777 33.0749C226.295 32.8519 226.741 32.4911 227.067 32.0319L234.774 20.8725L227.523 9.80744C227.245 9.38996 226.854 9.05959 226.396 8.85459C225.678 8.57178 224.918 8.41076 224.147 8.37817C223.743 8.34812 223.541 8.06055 223.541 7.51975V7.17638C223.54 7.029 223.569 6.88304 223.627 6.74717L225.097 6.83301L226.788 6.91885C227.364 6.91885 227.897 6.91885 228.387 6.96177H231.071C231.647 6.93173 232.253 6.91885 232.89 6.91885L234.838 6.83301L236.558 6.74717C236.585 6.88869 236.6 7.03232 236.601 7.17638C236.625 7.28947 236.639 7.40431 236.644 7.51975C236.644 8.03909 236.468 8.31379 236.124 8.34383C234.679 8.45972 233.974 8.77304 233.974 9.29668C234.007 9.64524 234.141 9.97652 234.361 10.2495L239.091 17.8337L243.972 10.7302C244.114 10.5221 244.243 10.3057 244.359 10.0821C244.466 9.91316 244.527 9.71939 244.536 9.51987C244.536 8.97048 243.819 8.5799 242.385 8.34812C242.011 8.31808 241.822 8.04338 241.822 7.52404V7.18067L241.912 6.75146C242.772 6.8373 243.653 6.89453 244.553 6.92315C245.473 6.95319 246.273 6.96607 246.888 6.96607C247.748 6.96607 248.518 6.96607 249.271 6.92315C250.023 6.88022 250.728 6.8373 251.391 6.75146C251.421 6.90836 251.436 7.06802 251.434 7.22789C251.46 7.3406 251.474 7.45564 251.477 7.57125C251.491 7.78804 251.43 8.00308 251.305 8.18073C251.199 8.28992 251.062 8.36471 250.913 8.39534C250.21 8.4482 249.521 8.62399 248.879 8.91468C248.358 9.15196 247.911 9.52757 247.589 10.0006L240.579 19.8724L248.608 31.989Z" fill="#0A3647"/>
<path d="M6.76607 63.287C6.46449 63.291 6.16638 63.2225 5.89691 63.0873C5.62745 62.9521 5.39455 62.7541 5.21789 62.5101C5.03054 62.2025 4.93367 61.8485 4.93836 61.4886C4.67558 61.5088 4.41245 61.4542 4.17952 61.3311C3.94659 61.208 3.75341 61.0215 3.62241 60.7933C3.51611 60.5962 3.45798 60.3768 3.45275 60.1531C3.44752 59.9293 3.49534 59.7075 3.5923 59.5057C3.71763 59.2627 3.91147 59.0618 4.14991 58.9275C4.38834 58.7933 4.66094 58.7317 4.93406 58.7502C4.86619 58.3984 4.91922 58.0339 5.08458 57.7159C5.25008 57.4154 5.49443 57.1655 5.79143 56.9931C6.08842 56.8207 6.42683 56.7323 6.77037 56.7373C7.8799 56.7373 8.34435 57.4841 8.34435 58.5056C8.34435 59.1237 7.48425 59.673 6.97679 60.0078C7.48855 60.3426 8.34435 60.892 8.34005 61.5101C8.34005 62.5402 7.8799 63.287 6.76607 63.287ZM15.423 59.3254C12.7825 59.2953 17.4313 59.3254 11.2343 59.3254C10.9884 59.3356 10.7422 59.311 10.5032 59.2524C10.3472 59.1801 10.2146 59.0656 10.1205 58.9219C9.91559 58.2332 9.63733 57.5685 9.29046 56.939C9.01389 56.5216 8.64026 56.1771 8.20145 55.9349C7.76263 55.6928 7.27165 55.5602 6.77037 55.5483C6.28122 55.5619 5.803 55.6959 5.37832 55.9385C4.95364 56.1812 4.59567 56.5248 4.33629 56.939C4.1528 57.1996 3.99713 57.4787 3.87184 57.7716C3.47058 57.9009 3.10328 58.1179 2.79671 58.4069C2.56017 58.6262 2.3715 58.8919 2.24248 59.1873C2.11346 59.4827 2.04687 59.8015 2.04688 60.1237C2.04688 60.446 2.11346 60.7647 2.24248 61.0601C2.3715 61.3555 2.56017 61.6212 2.79671 61.8406C3.13268 62.1625 3.5458 62.3931 3.99655 62.5101C4.0986 62.7145 4.21802 62.9098 4.35349 63.0938C4.61344 63.5075 4.97153 63.8507 5.3961 64.0933C5.82066 64.3359 6.29858 64.4702 6.78757 64.4845C7.28576 64.4692 7.77302 64.335 8.20851 64.093C8.644 63.8511 9.01502 63.5084 9.29046 63.0938C9.70302 62.487 9.98558 61.8017 10.1205 61.0809C10.2085 60.9186 10.3497 60.7913 10.5204 60.7203C10.7535 60.6614 10.9957 60.6468 11.2343 60.6774H15.423C15.5123 60.5888 15.5832 60.4835 15.6316 60.3675C15.6799 60.2515 15.7049 60.1271 15.7049 60.0014C15.7049 59.8757 15.6799 59.7513 15.6316 59.6353C15.5832 59.5193 15.5123 59.4139 15.423 59.3254Z" fill="#0A3647"/>
<path d="M27.0483 59.5314C27.16 59.4264 27.2635 59.313 27.3579 59.1923C27.5591 58.9613 27.7792 58.7474 28.0159 58.5528C28.3092 58.3153 28.628 58.1109 28.9663 57.9433C29.3248 57.7528 29.7256 57.6554 30.1317 57.66C30.4237 57.658 30.7142 57.7029 30.9918 57.7931C31.255 57.876 31.4931 58.0236 31.6842 58.2223C31.9029 58.4412 32.0716 58.7048 32.1788 58.9948C32.3095 59.3698 32.3707 59.7654 32.3594 60.1623V64.7505C32.3638 64.8474 32.3979 64.9405 32.4572 65.0173C32.5164 65.0941 32.5979 65.1508 32.6905 65.1798C32.9315 65.2759 33.1825 65.345 33.4388 65.3858C33.4866 65.3997 33.5277 65.4304 33.5545 65.4722C33.5814 65.514 33.5922 65.5641 33.585 65.6133C33.582 65.7144 33.5691 65.8151 33.5463 65.9137L32.6174 65.8407C32.325 65.8407 31.9982 65.8193 31.6326 65.8193C31.2671 65.8193 30.9918 65.8193 30.665 65.8407L29.7146 65.9137C29.6951 65.8146 29.6836 65.7142 29.6802 65.6133C29.6737 65.5618 29.687 65.5097 29.7173 65.4676C29.7475 65.4254 29.7927 65.3962 29.8436 65.3858C29.955 65.3738 30.0646 65.3493 30.1705 65.3128C30.2846 65.2786 30.3955 65.234 30.5016 65.1798C30.5879 65.1353 30.6675 65.0789 30.7381 65.0124C30.7729 64.9774 30.8004 64.9359 30.8188 64.8902C30.8373 64.8445 30.8464 64.7955 30.8456 64.7463V61.0593C30.8467 60.7724 30.8294 60.4857 30.794 60.2009C30.7642 59.9645 30.6897 59.7359 30.5747 59.5271C30.4833 59.3338 30.3327 59.1744 30.1446 59.0721C29.9407 58.9519 29.7061 58.8938 29.4695 58.9047C29.1635 58.905 28.8602 58.9617 28.575 59.0721C28.2833 59.174 28.016 59.3354 27.7902 59.546C27.5644 59.7566 27.385 60.0118 27.2633 60.2953C27.1243 60.6223 27.0554 60.9746 27.0612 61.3297V64.7634C27.0634 64.8578 27.0941 64.9493 27.1494 65.0259C27.2047 65.1025 27.2819 65.1606 27.3708 65.1926C27.5943 65.2878 27.8281 65.357 28.0675 65.3987C28.1184 65.4091 28.1636 65.4383 28.1939 65.4804C28.2242 65.5226 28.2374 65.5746 28.2309 65.6261C28.2279 65.7273 28.215 65.8279 28.1922 65.9266L27.2633 65.8536C26.958 65.8536 26.6354 65.8322 26.2957 65.8322C25.956 65.8322 25.6076 65.8322 25.2937 65.8536L24.3605 65.9266C24.341 65.8275 24.3295 65.727 24.3261 65.6261C24.3261 65.5017 24.3734 65.4244 24.4723 65.3987C24.7286 65.3579 24.9796 65.2888 25.2206 65.1926C25.3121 65.1624 25.3923 65.1052 25.4507 65.0286C25.509 64.952 25.5427 64.8595 25.5474 64.7634V54.6169C25.5823 54.3297 25.5036 54.0402 25.3281 53.81C25.0754 53.6335 24.7763 53.535 24.468 53.5267C24.4345 53.5256 24.4015 53.5178 24.3711 53.5037C24.3406 53.4897 24.3134 53.4696 24.2909 53.4448C24.2684 53.4199 24.2512 53.3908 24.2402 53.3592C24.2293 53.3275 24.2248 53.294 24.2272 53.2606C24.2292 53.1721 24.2422 53.0841 24.2659 52.9988C24.425 52.9988 24.6443 52.9988 24.9238 52.9988L25.6893 52.9215C25.9421 52.8898 26.1922 52.8395 26.4376 52.7713C26.5906 52.7197 26.7496 52.688 26.9107 52.6769C26.9507 52.6717 26.9915 52.676 27.0296 52.6894C27.0676 52.7029 27.1021 52.725 27.13 52.7541C27.1698 52.8153 27.1894 52.8873 27.1859 52.9602C27.1683 53.2064 27.1367 53.4514 27.0913 53.6941C27.0506 54.0187 27.0319 54.3456 27.0354 54.6727L27.0483 59.5314ZM40.1691 61.862C40.1597 60.7537 40.5858 59.6859 41.356 58.8875C41.7248 58.5124 42.163 58.2122 42.6462 58.0034C43.1505 57.7773 43.6975 57.6617 44.2503 57.6643C44.8142 57.6578 45.3735 57.7673 45.8931 57.9862C46.3789 58.1784 46.8186 58.4709 47.1832 58.8446C47.5658 59.2219 47.8596 59.6793 48.0433 60.1838C48.2546 60.7223 48.3597 61.2965 48.353 61.8748C48.3577 62.9814 47.934 64.047 47.1703 64.8493C46.802 65.2293 46.364 65.5353 45.8802 65.7506C45.3799 65.9684 44.8391 66.0781 44.2933 66.0725C43.733 66.0772 43.1769 65.9752 42.6548 65.7721C42.1742 65.57 41.7364 65.2787 41.3646 64.9137C40.9939 64.5352 40.7016 64.0874 40.5045 63.596C40.2873 63.0434 40.1736 62.4556 40.1691 61.862ZM41.8893 61.2396C41.8901 61.7211 41.939 62.2014 42.0355 62.6732C42.1229 63.1342 42.2674 63.5826 42.4656 64.008C42.6608 64.3815 42.9266 64.7138 43.2483 64.9866C43.5775 65.241 43.9845 65.3744 44.4008 65.3643C44.7097 65.3792 45.0176 65.318 45.2973 65.1863C45.577 65.0546 45.82 64.8563 46.0049 64.6089C46.4124 64.0477 46.6185 63.3657 46.5897 62.6732C46.5863 62.1861 46.5373 61.7004 46.4435 61.2224C46.3705 60.7401 46.2255 60.2713 46.0135 59.8318C45.836 59.4241 45.5667 59.0628 45.2265 58.7759C44.9007 58.4889 44.4782 58.3356 44.0439 58.3467C43.7466 58.3371 43.4511 58.3947 43.1793 58.5151C42.9075 58.6355 42.6664 58.8156 42.4742 59.0421C42.0785 59.5099 41.885 60.2396 41.885 61.2396H41.8893ZM62.8069 59.5657C62.9257 59.4563 63.035 59.3371 63.1338 59.2094C63.335 58.9785 63.555 58.7646 63.7917 58.5699C64.0879 58.3327 64.4062 58.1243 64.7421 57.9476C65.1016 57.7594 65.5017 57.6622 65.9076 57.6643C66.203 57.634 66.5012 57.6805 66.7733 57.7993C67.0454 57.9182 67.2819 58.1053 67.4601 58.3424C67.793 58.8985 67.9517 59.5412 67.9159 60.188V64.7591C67.9194 64.8556 67.9527 64.9486 68.0112 65.0254C68.0697 65.1023 68.1506 65.1592 68.2428 65.1883C68.4782 65.2834 68.7233 65.3525 68.9738 65.3944C69.0248 65.4048 69.0699 65.434 69.1002 65.4761C69.1305 65.5183 69.1437 65.5704 69.1373 65.6218C69.1342 65.723 69.1213 65.8236 69.0985 65.9223L68.1696 65.8493C67.8643 65.8493 67.5375 65.8279 67.1848 65.8279C66.8322 65.8279 66.5441 65.8279 66.2172 65.8493L65.2668 65.9223C65.2473 65.8232 65.2358 65.7228 65.2324 65.6218C65.2259 65.5704 65.2392 65.5183 65.2695 65.4761C65.2998 65.434 65.3449 65.4048 65.3958 65.3944C65.5086 65.3824 65.6196 65.3579 65.727 65.3214C65.8395 65.2864 65.9488 65.2419 66.0538 65.1883C66.1407 65.1449 66.2205 65.0884 66.2903 65.021C66.3257 64.9862 66.3538 64.9448 66.373 64.8991C66.3922 64.8534 66.4021 64.8044 66.4021 64.7548V60.8919C66.45 60.3561 66.355 59.8171 66.1269 59.3296C66.0283 59.1864 65.8938 59.0714 65.7369 58.9961C65.58 58.9208 65.4061 58.8878 65.2324 58.9004C64.9208 58.8999 64.6117 58.9566 64.3207 59.0678C64.0403 59.1699 63.7851 59.3309 63.5724 59.5399C63.3459 59.7511 63.1658 60.0069 63.0435 60.2911C62.9044 60.618 62.8355 60.9703 62.8413 61.3255V64.7591C62.8435 64.8535 62.8743 64.945 62.9295 65.0216C62.9848 65.0982 63.062 65.1563 63.151 65.1883C63.3747 65.283 63.6084 65.3521 63.8476 65.3944C63.8986 65.4048 63.9437 65.434 63.974 65.4761C64.0043 65.5183 64.0175 65.5704 64.0111 65.6218C64.0081 65.723 63.9951 65.8236 63.9724 65.9223L63.0435 65.8493C62.751 65.8493 62.4414 65.8279 62.1145 65.8279C61.7877 65.8279 61.4566 65.8279 61.1297 65.8493L60.1793 65.9223C60.1577 65.8236 60.1461 65.7229 60.1449 65.6218C60.1374 65.5702 60.1502 65.5176 60.1807 65.4752C60.2111 65.4328 60.2569 65.4038 60.3083 65.3944C60.5325 65.3574 60.7517 65.2955 60.962 65.2098C61.0606 65.1801 61.1473 65.1201 61.2098 65.0385C61.2723 64.9568 61.3075 64.8576 61.3104 64.7548V60.8919C61.3605 60.356 61.2654 59.8164 61.0351 59.3296C60.9436 59.1876 60.8154 59.0727 60.6641 58.9972C60.5127 58.9217 60.3438 58.8882 60.175 58.9004C59.8634 58.8995 59.5542 58.9562 59.2633 59.0678C58.9766 59.1741 58.7144 59.3372 58.4927 59.5475C58.2709 59.7578 58.0942 60.0107 57.9732 60.2911C57.8321 60.6174 57.7631 60.9702 57.771 61.3255V64.7591C57.7732 64.8535 57.804 64.945 57.8593 65.0216C57.9145 65.0982 57.9917 65.1563 58.0807 65.1883C58.3041 65.2795 58.5361 65.3485 58.7731 65.3944C58.8245 65.4038 58.8703 65.4328 58.9007 65.4752C58.9312 65.5176 58.944 65.5702 58.9365 65.6218C58.9353 65.7229 58.9237 65.8236 58.9021 65.9223L57.9732 65.8493C57.6678 65.8493 57.3453 65.8279 57.0056 65.8279C56.6658 65.8279 56.3175 65.8279 55.9992 65.8493L55.0703 65.9223C55.0487 65.8236 55.0371 65.7229 55.0359 65.6218C55.0284 65.5702 55.0412 65.5176 55.0717 65.4752C55.1021 65.4328 55.1479 65.4038 55.1993 65.3944C55.4484 65.3525 55.6922 65.2834 55.9261 65.1883C56.0182 65.1583 56.099 65.1013 56.158 65.0247C56.2171 64.9482 56.2517 64.8556 56.2573 64.7591V59.6215C56.2812 59.3376 56.2101 59.0538 56.0551 58.8146C55.832 58.6098 55.5366 58.5017 55.2337 58.5141C55.2006 58.5125 55.1681 58.5043 55.1382 58.49C55.1082 58.4756 55.0815 58.4555 55.0594 58.4307C55.0374 58.4059 55.0206 58.377 55.0099 58.3456C54.9992 58.3143 54.9949 58.2811 54.9972 58.248C55.0006 58.1653 55.0136 58.0832 55.0359 58.0034C55.1907 58.0034 55.4101 58.0034 55.6896 58.0034C55.9691 58.0034 56.2186 57.9519 56.4035 57.9261C56.683 57.8789 56.9324 57.8274 57.1518 57.7759C57.3053 57.7264 57.464 57.6948 57.6248 57.6815C57.7968 57.6815 57.8786 57.7759 57.8786 57.9647C57.8757 58.1788 57.8584 58.3925 57.8269 58.6043C57.7839 58.9229 57.7653 59.2443 57.771 59.5657L58.0807 59.2094C58.2808 58.9774 58.501 58.7634 58.7387 58.5699C59.0307 58.334 59.348 58.131 59.6848 57.9647C60.0448 57.7742 60.447 57.6768 60.8545 57.6815C61.1113 57.6603 61.3696 57.695 61.6117 57.7832C61.8537 57.8713 62.0737 58.0109 62.2565 58.1922C62.5821 58.5779 62.7684 59.0616 62.7854 59.5657H62.8069ZM82.3097 64.081C82.3435 64.042 82.385 64.0105 82.4316 63.9883C82.4783 63.9661 82.529 63.9539 82.5806 63.9522C82.701 63.9522 82.8171 64.0595 82.9289 64.2698C82.7642 64.5051 82.5801 64.7262 82.3785 64.9308C82.1563 65.1561 81.9063 65.3523 81.6345 65.5145C81.33 65.6865 81.0049 65.8192 80.6669 65.9094C80.2553 66.0144 79.8316 66.0649 79.4068 66.0596C78.9343 66.0619 78.4651 65.979 78.0221 65.815C77.583 65.6507 77.1842 65.3946 76.8523 65.0639C76.5081 64.6976 76.2366 64.2694 76.0525 63.802C75.845 63.236 75.7458 62.6362 75.76 62.0336C75.7544 61.4257 75.8714 60.8229 76.1041 60.261C76.3299 59.7509 76.646 59.2857 77.0373 58.8875C77.3932 58.5161 77.8126 58.2108 78.2758 57.9862C78.6913 57.7831 79.1464 57.6732 79.609 57.6643C80.7386 57.6643 81.5585 58.0034 82.0688 58.6815C82.6224 59.4523 82.8997 60.3867 82.8558 61.334C82.8578 61.3494 82.8564 61.3649 82.8515 61.3796C82.8467 61.3943 82.8386 61.4077 82.8278 61.4188C82.8171 61.4299 82.804 61.4385 82.7895 61.4439C82.775 61.4493 82.7594 61.4513 82.744 61.4499L77.4544 61.6946C77.4504 62.153 77.5186 62.6093 77.6565 63.0466C77.7766 63.4358 77.9676 63.7996 78.2199 64.1196C78.4606 64.4344 78.7741 64.6862 79.1336 64.8537C79.4931 65.0211 79.8878 65.0991 80.2841 65.081C80.672 65.0815 81.0537 64.984 81.3937 64.7978C81.7424 64.6218 82.0523 64.3781 82.3054 64.081H82.3097ZM79.3509 58.3424C79.0706 58.3333 78.7926 58.396 78.5435 58.5245C78.2943 58.653 78.0822 58.843 77.9275 59.0764C77.5652 59.6488 77.388 60.3186 77.42 60.995L80.8604 60.8276C81.0453 60.8276 81.1356 60.746 81.1356 60.5829C81.1343 60.3288 81.0981 60.0761 81.0281 59.8318C80.9585 59.5762 80.8465 59.3339 80.697 59.115C80.5553 58.8912 80.3622 58.7044 80.1336 58.5699C79.901 58.4151 79.6262 58.3357 79.3466 58.3424H79.3509ZM94.6091 59.982C94.5313 59.9874 94.4539 59.9662 94.3898 59.9219C94.3558 59.8771 94.3309 59.8261 94.3167 59.7717C94.2975 59.5583 94.2341 59.3511 94.1305 59.1634C94.0268 58.9757 93.8852 58.8116 93.7146 58.6815C93.3787 58.4474 92.9758 58.3284 92.5664 58.3424C92.2222 58.3394 91.8872 58.4529 91.616 58.6644C91.4831 58.7631 91.3771 58.8932 91.3072 59.0431C91.2374 59.193 91.2061 59.3578 91.216 59.5228C91.2137 59.679 91.2451 59.8338 91.3082 59.9768C91.3713 60.1197 91.4645 60.2474 91.5816 60.3511C91.996 60.6432 92.459 60.8597 92.9491 60.9907C93.2797 61.095 93.6029 61.2212 93.9167 61.3684C94.1993 61.4917 94.4583 61.6631 94.6822 61.8748C94.9053 62.0717 95.0804 62.3169 95.194 62.5916C95.3223 62.9076 95.3838 63.2466 95.3746 63.5874C95.3754 63.9094 95.3141 64.2285 95.194 64.5274C95.0826 64.8286 94.9013 65.0992 94.665 65.3171C94.4077 65.5595 94.1033 65.7465 93.7705 65.8665C93.3571 66.015 92.9195 66.0849 92.4804 66.0725C92.0378 66.0661 91.597 66.0158 91.1644 65.9223C90.7106 65.8393 90.2743 65.6796 89.8743 65.4502C89.8743 65.124 89.827 64.7849 89.8011 64.4329C89.7753 64.081 89.8011 63.7076 89.8011 63.3427H89.9818C90.0915 63.3392 90.2002 63.3659 90.2957 63.42C90.3365 63.4378 90.3717 63.4664 90.3975 63.5027C90.4233 63.539 90.4386 63.5817 90.4419 63.626C90.4669 64.1127 90.6741 64.5722 91.0225 64.9137C91.4336 65.248 91.9553 65.4164 92.4846 65.3858C92.8957 65.4136 93.3032 65.2933 93.6329 65.0467C93.7661 64.9255 93.8709 64.7765 93.94 64.6104C94.0091 64.4443 94.0408 64.265 94.0328 64.0853C94.0443 63.9054 94.011 63.7254 93.936 63.5614C93.8609 63.3975 93.7465 63.2545 93.6028 63.1453C93.2122 62.8697 92.7752 62.6662 92.3126 62.5444C91.6922 62.3688 91.1152 62.0662 90.6182 61.6559C90.4078 61.4493 90.245 61.1995 90.141 60.9238C90.037 60.6481 89.9944 60.3531 90.0162 60.0593C90.0141 59.7427 90.0755 59.429 90.1968 59.1365C90.3138 58.8536 90.488 58.5979 90.7085 58.3854C90.9402 58.1638 91.2135 57.9902 91.5127 57.8746C91.8501 57.7451 92.2092 57.681 92.5707 57.6858C93.0349 57.6817 93.4967 57.7527 93.9382 57.8961C94.296 57.9922 94.6389 58.1366 94.9574 58.3253C94.9574 58.4283 94.9832 58.5528 94.9961 58.703C95.009 58.8532 94.9961 58.9906 94.9961 59.1322C94.9961 59.2738 94.9961 59.4412 94.9961 59.6043C94.9961 59.7674 94.9961 59.8919 94.9961 60.0335L94.6091 59.982ZM119.122 65.3257C119.255 65.3257 119.328 65.4544 119.341 65.7206C118.986 65.9589 118.564 66.0778 118.137 66.0596C117.899 66.0662 117.663 66.0208 117.445 65.9266C117.26 65.8585 117.092 65.75 116.954 65.609C116.821 65.4728 116.714 65.3126 116.641 65.1368C116.568 64.9627 116.52 64.7792 116.499 64.5917C116.261 65.0837 115.879 65.4911 115.402 65.7592C114.951 65.9662 114.458 66.0689 113.961 66.0596C113.699 66.0578 113.437 66.0319 113.179 65.9824C112.907 65.946 112.646 65.8571 112.409 65.7206C112.163 65.5786 111.956 65.378 111.807 65.1368C111.637 64.8331 111.555 64.4884 111.57 64.1411C111.555 63.7299 111.663 63.3235 111.88 62.9736C112.092 62.6533 112.373 62.3837 112.701 62.1839C113.044 61.9692 113.413 61.7976 113.798 61.6731C114.198 61.5486 114.581 61.4413 114.946 61.3555L115.514 61.2396C115.674 61.1984 115.832 61.1482 115.987 61.0894C116.051 61.0804 116.112 61.0572 116.165 61.0215C116.219 60.9859 116.264 60.9387 116.297 60.8834C116.357 60.7218 116.382 60.549 116.37 60.3769C116.389 59.8726 116.275 59.3721 116.038 58.9262C115.919 58.7289 115.747 58.5694 115.54 58.4661C115.334 58.3628 115.103 58.3199 114.873 58.3424C114.694 58.3383 114.515 58.3644 114.344 58.4197C114.203 58.4682 114.077 58.5525 113.979 58.6644C113.868 58.7902 113.782 58.9358 113.725 59.0936C113.652 59.2695 113.579 59.4756 113.505 59.7159C113.488 59.7817 113.457 59.8429 113.413 59.8949C113.369 59.9469 113.314 59.9884 113.252 60.0164C113.045 60.1098 112.831 60.1859 112.611 60.2438C112.521 60.273 112.429 60.2973 112.336 60.3168C112.247 60.34 112.156 60.3529 112.065 60.3554C111.944 60.3554 111.88 60.2224 111.88 59.9606C111.889 59.6581 111.998 59.367 112.19 59.1322C112.409 58.8454 112.675 58.5973 112.977 58.3982C113.305 58.1835 113.661 58.0132 114.034 57.8918C114.377 57.7576 114.741 57.6863 115.11 57.6815C115.495 57.6773 115.881 57.7162 116.258 57.7974C116.575 57.8685 116.87 58.0158 117.118 58.2266C117.371 58.4416 117.56 58.7223 117.664 59.0378C117.812 59.4609 117.88 59.9076 117.866 60.3554V63.5917C117.866 64.0209 117.866 64.3514 117.901 64.5488C117.928 64.7052 117.977 64.8569 118.047 64.9995C118.105 65.1421 118.2 65.2666 118.322 65.36C118.424 65.4085 118.536 65.4335 118.649 65.433C118.742 65.4383 118.835 65.4266 118.924 65.3987C118.973 65.3638 119.029 65.339 119.088 65.3257H119.122ZM116.37 61.6559L115.785 61.7504C115.471 61.8105 115.161 61.8877 114.856 61.9736C114.575 62.0573 114.31 62.1847 114.069 62.3513C113.84 62.5013 113.647 62.7008 113.505 62.935C113.363 63.2076 113.294 63.512 113.303 63.8192C113.275 64.2137 113.4 64.6038 113.652 64.9094C113.766 65.0317 113.904 65.1286 114.058 65.1937C114.213 65.2588 114.379 65.2906 114.546 65.2871C114.779 65.2855 115.01 65.2343 115.221 65.1368C115.443 65.0364 115.641 64.8901 115.802 64.7076C115.976 64.501 116.113 64.2657 116.206 64.0123C116.315 63.7393 116.371 63.4478 116.37 63.1539V61.6559ZM133.619 64.7591C133.623 64.8559 133.657 64.9491 133.717 65.0259C133.776 65.1026 133.857 65.1594 133.95 65.1883C134.184 65.2834 134.428 65.3525 134.677 65.3944C134.728 65.4038 134.774 65.4328 134.805 65.4752C134.835 65.5176 134.848 65.5702 134.84 65.6218C134.839 65.7229 134.827 65.8236 134.806 65.9223L133.877 65.8493C133.572 65.8493 133.245 65.8279 132.892 65.8279C132.539 65.8279 132.234 65.8279 131.903 65.8493L130.957 65.9223C130.934 65.8236 130.921 65.723 130.918 65.6218C130.912 65.5697 130.926 65.5172 130.957 65.4749C130.988 65.4326 131.034 65.4038 131.086 65.3944C131.324 65.3521 131.556 65.283 131.778 65.1883C131.867 65.1563 131.944 65.0982 132 65.0216C132.055 64.945 132.086 64.8535 132.088 64.7591V61.0722C132.09 60.7851 132.071 60.4983 132.032 60.2138C132.007 59.9764 131.932 59.7469 131.813 59.5399C131.722 59.3463 131.571 59.1868 131.383 59.085C131.179 58.9648 130.944 58.9066 130.707 58.9176C130.402 58.9179 130.098 58.9746 129.813 59.085C129.521 59.1864 129.253 59.3472 129.026 59.5571C128.802 59.7705 128.622 60.0257 128.497 60.3082C128.359 60.6355 128.292 60.9878 128.299 61.3426V64.7763C128.301 64.8707 128.332 64.9622 128.387 65.0388C128.443 65.1154 128.52 65.1735 128.609 65.2055C128.832 65.2967 129.064 65.3657 129.301 65.4115C129.353 65.421 129.398 65.45 129.429 65.4924C129.459 65.5348 129.472 65.5874 129.465 65.639C129.461 65.7399 129.45 65.8404 129.43 65.9395L128.497 65.8665C128.196 65.8665 127.873 65.845 127.534 65.845C127.194 65.845 126.846 65.845 126.527 65.8665L125.598 65.9395C125.577 65.8407 125.565 65.7401 125.564 65.639C125.557 65.5874 125.569 65.5348 125.6 65.4924C125.63 65.45 125.676 65.421 125.727 65.4115C125.976 65.3692 126.22 65.3001 126.454 65.2055C126.546 65.1755 126.627 65.1185 126.686 65.0419C126.745 64.9653 126.78 64.8728 126.785 64.7763V59.6215C126.809 59.3376 126.738 59.0538 126.583 58.8146C126.36 58.6098 126.065 58.5017 125.762 58.5141C125.729 58.5125 125.696 58.5043 125.666 58.49C125.636 58.4756 125.61 58.4555 125.588 58.4307C125.566 58.4059 125.549 58.377 125.538 58.3456C125.527 58.3143 125.523 58.2811 125.525 58.248C125.529 58.1653 125.542 58.0832 125.564 58.0034C125.719 58.0034 125.938 58.0034 126.218 58.0034C126.497 58.0034 126.747 57.9519 126.932 57.9261C127.211 57.8789 127.461 57.8274 127.68 57.7759C127.833 57.7261 127.992 57.6944 128.153 57.6815C128.321 57.6815 128.407 57.7759 128.407 57.9647C128.404 58.1788 128.387 58.3925 128.355 58.6043C128.312 58.9229 128.293 59.2443 128.299 59.5657C128.736 59.0384 129.239 58.5696 129.796 58.1708C130.263 57.8505 130.816 57.6798 131.383 57.6815C131.693 57.6587 132.004 57.7081 132.293 57.8258C132.581 57.9434 132.837 58.1262 133.043 58.3596C133.446 58.8877 133.646 59.5425 133.606 60.2052L133.619 64.7591ZM149.006 64.1582C149.005 64.2906 149.017 64.4229 149.04 64.5531C149.065 64.6519 149.115 64.7423 149.187 64.8149C149.269 64.8986 149.369 64.963 149.479 65.0038C149.647 65.0481 149.818 65.0797 149.991 65.0982C150.15 65.124 150.227 65.2055 150.227 65.3429C150.225 65.4325 150.213 65.5216 150.193 65.609C150.034 65.609 149.819 65.609 149.552 65.6433C149.286 65.6776 149.079 65.6776 148.894 65.7034C148.628 65.7506 148.391 65.8021 148.185 65.8536C148.046 65.9038 147.902 65.9355 147.755 65.948C147.587 65.948 147.501 65.8536 147.501 65.6648V64.2355C147.329 64.4716 147.161 64.7033 146.989 64.9308C146.813 65.1496 146.611 65.3457 146.387 65.5145C146.153 65.6841 145.895 65.8172 145.622 65.9094C145.279 66.0162 144.922 66.067 144.564 66.0596C144.153 66.0594 143.748 65.9685 143.377 65.7935C142.979 65.6178 142.627 65.3552 142.345 65.0252C142.035 64.6395 141.794 64.2041 141.631 63.7376C141.454 63.1827 141.368 62.603 141.377 62.0208C141.366 61.3849 141.497 60.7545 141.76 60.1752C141.987 59.6617 142.31 59.1957 142.71 58.8017C143.056 58.4377 143.471 58.1459 143.931 57.9433C144.318 57.7558 144.74 57.652 145.17 57.6385C145.584 57.632 145.997 57.684 146.396 57.7931C146.763 57.8813 147.123 58.0005 147.471 58.1493V54.5912C147.498 54.3124 147.427 54.033 147.269 53.8014C147.046 53.5966 146.75 53.4885 146.447 53.501C146.414 53.4993 146.382 53.4911 146.352 53.4768C146.322 53.4625 146.295 53.4423 146.273 53.4175C146.251 53.3927 146.234 53.3638 146.223 53.3324C146.213 53.3011 146.208 53.2679 146.211 53.2348C146.213 53.1463 146.226 53.0584 146.249 52.973C146.404 52.973 146.624 52.973 146.903 52.973C147.183 52.973 147.432 52.9215 147.617 52.8958C147.87 52.864 148.12 52.8138 148.365 52.7455C148.518 52.694 148.677 52.6622 148.838 52.6511C149.01 52.6511 149.092 52.7456 149.092 52.9344C149.09 53.1799 149.073 53.425 149.04 53.6684C148.999 54.0058 148.98 54.3456 148.985 54.6856L149.006 64.1582ZM147.492 59.3983C147.204 59.0861 146.866 58.8248 146.49 58.6257C146.105 58.4325 145.679 58.3353 145.247 58.3424C144.922 58.3306 144.6 58.4089 144.317 58.5688C144.034 58.7287 143.801 58.9638 143.643 59.2481C143.265 59.9587 143.082 60.7572 143.114 61.5615C143.112 62.0233 143.161 62.484 143.261 62.935C143.358 63.3311 143.511 63.7113 143.716 64.0638C143.902 64.3688 144.15 64.6319 144.443 64.8364C144.731 65.0237 145.067 65.1223 145.411 65.1197C145.671 65.1139 145.925 65.0351 146.142 64.8922C146.388 64.7371 146.61 64.5462 146.8 64.3256C147.006 64.0911 147.172 63.8243 147.29 63.5359C147.42 63.2589 147.489 62.9574 147.492 62.6517V59.3983ZM170.362 63.7805C170.947 62.2912 171.382 61.1409 171.652 60.3469C171.854 59.8631 171.998 59.3575 172.083 58.8403C172.085 58.7842 172.075 58.7281 172.054 58.6762C172.032 58.6243 171.999 58.5777 171.958 58.5399C171.794 58.4148 171.596 58.3429 171.39 58.3339C171.358 58.3359 171.325 58.3309 171.295 58.3192C171.265 58.3075 171.238 58.2894 171.215 58.2661C171.193 58.2428 171.176 58.2149 171.165 58.1844C171.154 58.1539 171.15 58.1214 171.154 58.0892C171.151 58.0521 171.151 58.0148 171.154 57.9776C171.154 57.9261 171.179 57.8832 171.192 57.8446C171.665 57.8832 172.173 57.9004 172.706 57.9004H173.437C173.652 57.9004 173.867 57.8703 174.056 57.8446C174.088 57.9227 174.107 58.0052 174.112 58.0892C174.115 58.1209 174.109 58.1527 174.096 58.1818C174.084 58.211 174.064 58.2366 174.039 58.2566L173.872 58.3725C173.652 58.5098 173.441 58.6343 173.235 58.7459C173.022 58.8668 172.86 59.0604 172.779 59.291L170.134 66.0296C170.046 66.0578 169.952 66.0709 169.859 66.0682C169.797 66.0702 169.736 66.0532 169.683 66.0195C169.631 65.9857 169.59 65.9369 169.567 65.8794L169.313 65.2785L166.814 59.291C166.759 59.1428 166.691 58.9993 166.612 58.8618C166.562 58.7613 166.494 58.671 166.41 58.5957C166.333 58.5301 166.239 58.4858 166.139 58.4669C165.999 58.4223 165.855 58.3907 165.709 58.3725C165.554 58.3725 165.473 58.2652 165.473 58.0892C165.476 58.005 165.495 57.9221 165.529 57.8446C165.834 57.8703 166.118 57.8875 166.389 57.9004H168.341C168.646 57.9004 168.956 57.8703 169.274 57.8446C169.31 57.9213 169.327 58.0048 169.326 58.0892C169.329 58.1214 169.325 58.1539 169.315 58.1844C169.304 58.2149 169.287 58.2428 169.264 58.2661C169.242 58.2894 169.215 58.3075 169.184 58.3192C169.154 58.3309 169.122 58.3359 169.089 58.3339C168.886 58.3561 168.689 58.4127 168.505 58.5013C168.465 58.5241 168.432 58.5574 168.41 58.5975C168.388 58.6376 168.378 58.683 168.38 58.7287C168.4 58.8893 168.436 59.0475 168.487 59.2009C168.559 59.4384 168.675 59.7517 168.836 60.1408L170.362 63.7805ZM182.232 65.8322H181.595L181.01 65.8708L180.537 65.9094H180.279C180.282 65.8651 180.282 65.8207 180.279 65.7764C180.275 65.7207 180.275 65.6647 180.279 65.609C180.273 65.5575 180.286 65.5054 180.316 65.4633C180.347 65.4211 180.392 65.3919 180.443 65.3815C180.706 65.3363 180.962 65.2614 181.208 65.1583C181.297 65.1284 181.374 65.0703 181.427 64.9928C181.48 64.9153 181.506 64.8227 181.501 64.7291V59.6215C181.525 59.3376 181.453 59.0538 181.299 58.8146C181.075 58.6098 180.78 58.5017 180.477 58.5141C180.444 58.5125 180.411 58.5043 180.382 58.49C180.352 58.4756 180.325 58.4555 180.303 58.4307C180.281 58.4059 180.264 58.377 180.253 58.3456C180.243 58.3143 180.238 58.2811 180.241 58.248C180.244 58.1653 180.257 58.0832 180.279 58.0034C180.438 58.0034 180.658 58.0034 180.937 58.0034C181.217 58.0034 181.462 57.9519 181.647 57.9261C181.926 57.8789 182.176 57.8274 182.395 57.7759C182.549 57.7264 182.707 57.6948 182.868 57.6815C183.04 57.6815 183.122 57.7759 183.122 57.9647C183.119 58.1788 183.102 58.3925 183.07 58.6043C183.027 58.9229 183.009 59.2443 183.014 59.5657V64.7591C183.008 64.8506 183.032 64.9417 183.081 65.0189C183.131 65.0962 183.204 65.1555 183.29 65.1883C183.547 65.2938 183.815 65.3687 184.09 65.4115C184.188 65.4373 184.236 65.5145 184.236 65.639C184.24 65.6947 184.24 65.7507 184.236 65.8064C184.236 65.8837 184.236 65.9266 184.236 65.9395H183.978L183.522 65.9008L182.92 65.8622L182.232 65.8322ZM181.139 54.5096C181.134 54.2242 181.239 53.9477 181.432 53.737C181.528 53.6292 181.646 53.5431 181.778 53.4846C181.91 53.4261 182.053 53.3966 182.197 53.398C182.337 53.3963 182.475 53.426 182.601 53.4846C182.728 53.5433 182.84 53.6296 182.928 53.737C183.121 53.9477 183.226 54.2242 183.221 54.5096C183.227 54.654 183.205 54.7983 183.154 54.9339C183.104 55.0695 183.027 55.1938 182.928 55.2993C182.834 55.3978 182.721 55.4754 182.595 55.5271C182.469 55.5789 182.333 55.6036 182.197 55.5998C182.056 55.6035 181.915 55.5788 181.784 55.5272C181.652 55.4756 181.533 55.3981 181.432 55.2993C181.333 55.1938 181.256 55.0695 181.206 54.9339C181.156 54.7983 181.133 54.654 181.139 54.5096ZM194.682 65.9266L193.718 65.8536C193.387 65.8536 193.06 65.8322 192.734 65.8322C192.407 65.8322 192.063 65.8322 191.71 65.8536L190.742 65.9266C190.723 65.8275 190.711 65.727 190.708 65.6261C190.7 65.5745 190.713 65.5219 190.744 65.4795C190.774 65.4371 190.82 65.4081 190.871 65.3987C191.127 65.3545 191.378 65.2855 191.62 65.1926C191.714 65.1653 191.798 65.1094 191.86 65.0325C191.922 64.9557 191.958 64.8617 191.964 64.7634V54.6169C191.982 54.4734 191.97 54.3277 191.93 54.1888C191.889 54.05 191.82 53.921 191.727 53.81C191.48 53.622 191.178 53.5222 190.867 53.5267C190.834 53.5251 190.801 53.5169 190.772 53.5025C190.742 53.4882 190.715 53.4681 190.693 53.4433C190.671 53.4185 190.654 53.3896 190.643 53.3582C190.633 53.3268 190.628 53.2936 190.631 53.2606C190.633 53.1724 190.645 53.0847 190.665 52.9988C190.824 52.9988 191.043 52.9988 191.323 52.9988L192.088 52.9215C192.341 52.8898 192.591 52.8395 192.837 52.7713C192.99 52.7201 193.149 52.6884 193.31 52.6769C193.35 52.671 193.391 52.675 193.429 52.6884C193.467 52.7019 193.502 52.7244 193.529 52.7541C193.571 52.8143 193.591 52.8871 193.585 52.9602C193.583 53.2115 193.564 53.4624 193.529 53.7113C193.492 54.0361 193.475 54.3629 193.478 54.6899V64.7591C193.482 64.8553 193.516 64.9477 193.574 65.0243C193.633 65.1009 193.713 65.1581 193.804 65.1883C194.052 65.2828 194.308 65.3518 194.57 65.3944C194.669 65.4201 194.716 65.4974 194.716 65.6218C194.715 65.7243 194.703 65.8264 194.682 65.9266ZM205.287 65.9266L204.319 65.8536C203.992 65.8536 203.665 65.8322 203.334 65.8322C203.003 65.8322 202.668 65.8322 202.315 65.8536C201.962 65.8751 201.653 65.9008 201.347 65.9266C201.325 65.8279 201.312 65.7273 201.309 65.6261C201.302 65.5746 201.315 65.5226 201.346 65.4804C201.376 65.4383 201.421 65.4091 201.472 65.3987C201.728 65.3556 201.979 65.2866 202.22 65.1926C202.316 65.1655 202.4 65.1097 202.463 65.0329C202.525 64.9561 202.562 64.862 202.569 64.7634V54.6169C202.587 54.4734 202.576 54.3277 202.535 54.1888C202.494 54.05 202.425 53.921 202.332 53.81C202.085 53.6229 201.782 53.5232 201.472 53.5267C201.439 53.5251 201.406 53.5169 201.377 53.5025C201.347 53.4882 201.32 53.4681 201.298 53.4433C201.276 53.4185 201.259 53.3896 201.248 53.3582C201.238 53.3268 201.233 53.2936 201.236 53.2606C201.238 53.1721 201.251 53.0841 201.274 52.9988C201.433 52.9988 201.653 52.9988 201.932 52.9988L202.698 52.9215C202.951 52.8898 203.201 52.8395 203.446 52.7713C203.599 52.7197 203.758 52.688 203.919 52.6769C203.959 52.6717 204 52.676 204.038 52.6894C204.076 52.7029 204.111 52.725 204.138 52.7541C204.178 52.8153 204.198 52.8873 204.194 52.9602C204.19 53.2114 204.172 53.4622 204.138 53.7113C204.098 54.0358 204.079 54.3628 204.083 54.6899V64.7591C204.088 64.8549 204.123 64.9468 204.181 65.0232C204.239 65.0996 204.318 65.1571 204.409 65.1883C204.658 65.2828 204.916 65.3518 205.179 65.3944C205.274 65.4201 205.321 65.4974 205.321 65.6218C205.32 65.7243 205.309 65.8265 205.287 65.9266ZM219.521 65.3257C219.655 65.3257 219.728 65.4544 219.741 65.7206C219.386 65.9584 218.964 66.0772 218.537 66.0596C218.299 66.0662 218.062 66.0208 217.844 65.9266C217.657 65.8601 217.488 65.7514 217.35 65.609C217.217 65.4726 217.112 65.3124 217.04 65.1368C216.968 64.9622 216.919 64.779 216.894 64.5917C216.656 65.0837 216.274 65.4911 215.797 65.7592C215.346 65.9666 214.853 66.0694 214.356 66.0596C214.094 66.0576 213.832 66.0317 213.574 65.9824C213.304 65.946 213.044 65.8571 212.808 65.7206C212.562 65.5786 212.356 65.378 212.206 65.1368C212.034 64.834 211.952 64.4887 211.97 64.1411C211.954 63.7299 212.062 63.3235 212.279 62.9736C212.491 62.6525 212.771 62.3827 213.101 62.1839C213.443 61.97 213.809 61.7985 214.193 61.6731C214.593 61.5486 214.98 61.4413 215.341 61.3555L215.909 61.2396C216.069 61.1984 216.227 61.1482 216.382 61.0894C216.554 61.0407 216.657 60.9721 216.692 60.8834C216.752 60.7218 216.777 60.549 216.765 60.3769C216.786 59.873 216.673 59.3725 216.438 58.9262C216.317 58.7293 216.144 58.5702 215.937 58.467C215.73 58.3638 215.498 58.3206 215.268 58.3424C215.089 58.3383 214.91 58.3644 214.739 58.4197C214.599 58.4672 214.474 58.5518 214.378 58.6644C214.264 58.7887 214.176 58.9347 214.12 59.0936C214.047 59.2695 213.974 59.4756 213.901 59.7159C213.885 59.7825 213.854 59.8446 213.81 59.8968C213.766 59.9491 213.71 59.9901 213.647 60.0164C213.44 60.1105 213.226 60.1866 213.006 60.2438C212.933 60.2696 212.843 60.2911 212.735 60.3168C212.645 60.3397 212.553 60.3527 212.46 60.3554C212.34 60.3554 212.279 60.2224 212.279 59.9606C212.289 59.6581 212.398 59.367 212.589 59.1322C212.808 58.8464 213.072 58.5985 213.372 58.3982C213.701 58.1851 214.057 58.0149 214.43 57.8918C214.774 57.7571 215.139 57.6859 215.509 57.6815C215.895 57.6773 216.28 57.7162 216.657 57.7974C216.975 57.8678 217.27 58.0152 217.517 58.2266C217.771 58.4425 217.961 58.7228 218.068 59.0378C218.214 59.4612 218.281 59.9078 218.266 60.3554V63.5917C218.26 63.9112 218.273 64.2308 218.304 64.5488C218.329 64.7057 218.379 64.8577 218.451 64.9995C218.509 65.1404 218.602 65.2643 218.721 65.36C218.825 65.4086 218.938 65.4335 219.053 65.433C219.144 65.4384 219.236 65.4268 219.324 65.3987C219.383 65.3599 219.451 65.335 219.521 65.3257ZM216.765 61.6559L216.18 61.7504C215.866 61.8105 215.556 61.8877 215.251 61.9736C214.972 62.0573 214.707 62.1848 214.468 62.3513C214.217 62.5014 214.013 62.718 213.877 62.9772C213.742 63.2363 213.682 63.5278 213.703 63.8192C213.674 64.2131 213.797 64.6032 214.047 64.9094C214.161 65.0315 214.3 65.1282 214.454 65.1933C214.608 65.2584 214.774 65.2903 214.941 65.2871C215.175 65.2859 215.405 65.2347 215.616 65.1368C215.84 65.0369 216.039 64.8906 216.201 64.7076C216.373 64.4997 216.508 64.2647 216.601 64.0123C216.71 63.7393 216.766 63.4478 216.765 63.1539V61.6559ZM230.956 59.982C230.879 59.9874 230.801 59.9662 230.737 59.9219C230.702 59.8779 230.677 59.8266 230.664 59.7717C230.645 59.5583 230.581 59.3511 230.478 59.1634C230.374 58.9757 230.232 58.8116 230.062 58.6815C229.726 58.4474 229.323 58.3284 228.914 58.3424C228.569 58.3394 228.234 58.4529 227.963 58.6644C227.83 58.7631 227.724 58.8932 227.654 59.0431C227.585 59.193 227.553 59.3578 227.563 59.5228C227.561 59.679 227.592 59.8338 227.655 59.9768C227.719 60.1197 227.812 60.2474 227.929 60.3511C228.343 60.6432 228.806 60.8597 229.296 60.9907C229.627 61.095 229.95 61.2212 230.264 61.3684C230.547 61.4917 230.806 61.6631 231.029 61.8748C231.253 62.0717 231.428 62.3169 231.541 62.5916C231.67 62.9076 231.731 63.2466 231.722 63.5874C231.723 63.9094 231.661 64.2285 231.541 64.5274C231.43 64.8286 231.249 65.0992 231.012 65.3171C230.755 65.5595 230.451 65.7465 230.118 65.8665C229.704 66.015 229.267 66.0849 228.828 66.0725C228.385 66.0659 227.944 66.0156 227.512 65.9223C227.058 65.8393 226.622 65.6796 226.221 65.4502C226.221 65.124 226.174 64.7849 226.148 64.4329C226.123 64.081 226.148 63.7076 226.148 63.3427H226.333C226.442 63.3396 226.549 63.3663 226.643 63.42C226.684 63.4372 226.719 63.4658 226.744 63.5023C226.769 63.5388 226.783 63.5817 226.785 63.626C226.813 64.1127 227.022 64.5714 227.37 64.9137C227.781 65.248 228.303 65.4164 228.832 65.3858C229.243 65.4136 229.65 65.2933 229.98 65.0467C230.113 64.9255 230.218 64.7765 230.287 64.6104C230.356 64.4443 230.388 64.265 230.38 64.0853C230.392 63.9054 230.358 63.7254 230.283 63.5614C230.208 63.3975 230.094 63.2545 229.95 63.1453C229.56 62.8689 229.123 62.6653 228.66 62.5444C228.039 62.3688 227.462 62.0662 226.965 61.6559C226.755 61.4493 226.592 61.1995 226.488 60.9238C226.384 60.6481 226.342 60.3531 226.363 60.0593C226.361 59.7427 226.423 59.429 226.544 59.1365C226.661 58.8536 226.835 58.5979 227.056 58.3854C227.287 58.1638 227.561 57.9902 227.86 57.8746C228.197 57.7451 228.556 57.681 228.918 57.6858C229.382 57.6817 229.844 57.7527 230.285 57.8961C230.643 57.993 230.986 58.1373 231.305 58.3253C231.305 58.4283 231.331 58.5528 231.343 58.703C231.356 58.8532 231.343 58.9906 231.343 59.1322C231.343 59.2738 231.343 59.4412 231.343 59.6043C231.343 59.7674 231.343 59.8919 231.343 60.0335L230.956 59.982Z" fill="#0A3647"/>
<path fill-rule="evenodd" clip-rule="evenodd" d="M242.191 59.2696C244.513 59.2696 245.885 59.2953 248.233 59.2696V59.6301C248.099 59.7383 247.955 59.8332 247.803 59.9134C247.589 60.0395 247.386 60.1831 247.196 60.3426V60.8705V61.48V61.9307C247.196 62.1238 247.261 62.141 247.338 62.141C247.853 61.7922 248.458 61.5986 249.08 61.583C249.69 61.629 250.28 61.8203 250.8 62.141C250.8 62.141 250.946 62.1882 250.946 61.9307C250.946 61.6731 250.946 61.48 250.946 61.48V60.8619V60.334C250.751 60.1845 250.543 60.0537 250.323 59.9434C250.138 59.8507 249.96 59.7461 249.79 59.6301C249.79 58.394 249.79 60.4156 249.79 59.2696H251.342C251.492 59.2755 251.638 59.2227 251.75 59.1225C251.862 59.0223 251.93 58.8826 251.94 58.7331V58.5185C251.941 58.3607 251.882 58.2085 251.773 58.0934C251.665 57.9783 251.517 57.9092 251.359 57.9004C247.639 57.9605 245.906 57.9004 242.203 57.9004C242.111 57.9884 242.036 58.0941 241.985 58.2112C241.934 58.3283 241.907 58.4545 241.906 58.5823C241.905 58.71 241.93 58.8366 241.978 58.9547C242.027 59.0728 242.099 59.1799 242.191 59.2696Z" fill="#0A3647"/>
</svg>
