<svg width="292" height="36" viewBox="0 0 292 36" fill="none" xmlns="http://www.w3.org/2000/svg">
<path fill-rule="evenodd" clip-rule="evenodd" d="M33.1804 8.20565C33.2319 8.20565 33.2834 8.25626 33.2834 8.30688C33.2834 8.30876 33.2842 8.31525 33.2855 8.32616C33.3195 8.60917 33.7119 11.8691 30.1436 14.9883C27.57 17.3166 22.4742 18.1771 22.4228 18.1771C22.3713 18.1771 22.3198 18.1265 22.3198 18.0759C22.3198 18.0253 21.5477 15.545 16.6064 15.545C11.6651 15.545 10.893 18.0759 10.893 18.0759C10.893 18.1265 10.8415 18.1771 10.7901 18.1771C10.7386 18.1771 5.64284 17.3166 3.06923 14.9883C-0.398126 11.8708 -0.00435573 8.61271 0.0302207 8.32663C0.0315739 8.31543 0.0323769 8.30879 0.0323769 8.30688C0.0323769 8.25626 0.0838484 8.20565 0.135321 8.20565C0.186793 8.20565 0.238265 8.20565 0.238265 8.25626C0.238265 8.25626 0.958876 9.42044 3.17218 9.42044C3.27512 9.42044 3.39093 9.40779 3.50675 9.39513C3.62256 9.38248 3.73837 9.36983 3.84132 9.36983C6.15756 9.16736 7.80467 8.0538 8.52528 6.13037C9.29736 4.05509 9.65767 3.34646 11.1504 2.5366C12.1283 2.03043 13.2607 1.9292 14.0328 1.9292C14.3931 1.9292 14.6505 1.97981 14.6505 1.97981C14.7019 1.97981 14.7534 2.03043 14.7534 2.03043V2.13167C14.7534 2.13167 14.0843 3.39708 14.4446 4.61187C14.7019 5.42174 15.4225 6.28222 16.6579 6.28222C17.8932 6.28222 18.6138 5.42174 18.8712 4.61187C19.283 3.39708 18.5623 2.13167 18.5623 2.13167V2.03043C18.5623 2.03043 18.6138 1.97981 18.6653 1.97981C18.6653 1.9292 18.9226 1.9292 19.2829 1.9292H19.283C20.1065 1.9292 21.2389 2.03043 22.1654 2.5366C23.6581 3.39708 24.0184 4.05509 24.7905 6.13037C25.5111 8.00318 27.1582 9.16736 29.4744 9.36983C29.7318 9.42044 29.9377 9.42044 30.1436 9.42044C32.3054 9.42044 33.0775 8.25626 33.0775 8.25626C33.0775 8.20565 33.129 8.20565 33.1804 8.20565ZM27.9818 23.0869C28.8053 23.2387 29.4745 23.6943 29.8862 24.3523C30.3495 25.0609 30.4524 25.9214 30.1436 26.9844C29.6289 28.8066 27.6215 29.4646 26.3861 29.4646C26.3011 29.4646 26.2161 29.4492 26.1397 29.4354C26.0773 29.4242 26.0206 29.414 25.9744 29.414C25.1508 29.2115 24.0699 28.7559 22.7316 27.8955C22.7058 27.8796 22.6805 27.864 22.6556 27.8487C21.8885 27.3769 21.5847 27.19 21.136 27.2881C20.6727 27.3893 20.3639 27.7436 20.158 28.2498C19.7977 28.9584 19.7462 29.9707 20.0551 30.5275C20.5698 31.5399 21.6507 31.7423 22.3713 31.0337C22.8345 30.5781 22.6801 29.8695 22.2684 29.414C22.0759 29.2011 21.8385 29.0434 21.6455 28.9153C21.4254 28.7692 21.263 28.6613 21.2904 28.5535C21.3933 28.0979 23.1949 28.6547 23.7096 29.1609C24.7905 30.1732 24.9964 31.1349 24.2758 32.4003C23.761 33.362 22.4742 34.0201 21.033 34.0201C20.2609 34.0201 19.5403 33.8682 19.0771 33.5139C17.4814 32.451 16.7608 30.9325 16.9153 28.9078C16.9655 28.1662 17.3105 27.7143 17.6143 27.3163C17.6215 27.3069 17.6287 27.2975 17.6359 27.2881C17.9447 26.8831 18.2021 26.5288 18.1506 25.972C18.0991 25.314 17.6873 24.9597 16.9153 24.9597H16.6064C16.3491 25.0103 16.1946 25.314 16.1432 25.972C16.0981 26.3706 16.1319 26.8855 16.1755 27.5505C16.1818 27.6455 16.1882 27.7436 16.1946 27.8448C16.2213 28.0283 16.2341 28.2118 16.2475 28.4023C16.2599 28.5797 16.2728 28.7632 16.2976 28.9584C16.452 30.9325 15.7314 32.4509 14.1358 33.5645C13.621 33.8682 12.9519 34.0707 12.1798 34.0707C10.7901 34.0707 9.50326 33.4633 8.93707 32.451C8.21646 31.1855 8.57676 29.7177 9.50326 29.0596C9.96651 28.7559 10.4298 28.4522 10.9445 28.4016C10.9831 28.4016 11.0254 28.3998 11.0703 28.398C11.2645 28.3898 11.5075 28.3795 11.7166 28.5029C11.9739 28.6041 12.0769 28.9078 11.5622 28.9584C11.4077 28.9584 10.7386 29.009 10.5327 29.9707C10.3783 30.8818 11.0474 31.5905 11.871 31.5399C12.3857 31.5399 12.9004 31.3374 13.1063 30.5275C13.2607 29.9707 13.2093 29.4646 13.1063 29.009C13.0034 28.5029 12.849 27.8955 12.5916 27.5918C12.4372 27.3893 12.2313 27.3893 12.0769 27.3893C11.768 27.3893 11.3048 27.4905 10.4812 27.9967C9.14296 28.8572 8.06204 29.3633 7.23849 29.5152C7.13554 29.5658 6.98113 29.5658 6.82671 29.5658C5.59138 29.5658 3.58397 28.9078 3.06924 27.0856C2.81188 26.1745 2.91483 25.314 3.37808 24.6054C3.78985 23.8968 4.61341 23.34 5.48844 23.1881C5.64285 23.1375 5.84873 23.1375 6.00314 23.1375H6.00316C6.56935 23.1375 7.08407 23.34 7.39291 23.6943C7.70174 23.998 7.80468 24.3523 7.75321 24.7572C7.70174 25.4153 7.18702 25.719 6.92966 25.719C6.82671 25.719 6.82671 25.719 6.77524 25.6683C6.6723 25.5671 6.72377 25.4153 6.82671 25.2634C6.83788 25.2305 6.85147 25.1951 6.86539 25.159C6.91559 25.0285 6.96996 24.8871 6.92966 24.8079C6.82671 24.656 6.56935 24.4535 6.26052 24.4535C6.00316 24.4535 5.79727 24.6054 5.59138 24.8585C5.33402 25.2128 5.33402 25.6177 5.38549 25.8708C5.48844 26.2251 5.69432 26.5794 6.00316 26.7819C6.1061 26.8325 6.26052 26.8831 6.46641 26.8831C7.08407 26.8831 8.01057 26.5794 8.37088 26.2251C8.3922 26.2042 8.42235 26.1832 8.45767 26.1586C8.50763 26.1239 8.56793 26.082 8.62824 26.0227C8.70975 25.9425 8.80444 25.8546 8.90812 25.7583C9.26275 25.4289 9.72266 25.0019 10.1209 24.4535C9.40032 23.998 8.73118 23.4412 8.06204 22.8338C7.39291 22.1758 6.92966 21.7202 6.56935 21.3153C6.45793 21.2057 6.35781 21.1036 6.26594 21.0098C6.01829 20.7571 5.83057 20.5656 5.64285 20.4548C5.1796 20.1511 4.8193 19.9993 4.51046 19.9993C4.30458 19.9993 4.15016 20.1005 4.04722 20.2524C3.68691 20.7079 4.2531 21.2141 4.2531 21.2141C4.30458 21.2647 4.35605 21.3153 4.30458 21.3659C4.2531 21.4672 4.09869 21.4672 3.99574 21.4672C3.58397 21.4672 3.06924 21.1635 2.9663 20.3536C2.91483 19.8474 3.06924 19.3919 3.42955 18.987C3.84133 18.5314 4.40752 18.2783 5.02519 18.2783H5.23107C6.20905 18.3796 7.44438 18.987 8.98854 20.0499L8.98856 20.0499C9.70917 20.5055 10.4298 20.961 11.0989 21.2141V21.1635C11.0989 20.5997 11.0102 20.0795 10.9151 19.522C10.9078 19.4788 10.9004 19.4355 10.893 19.3919C10.8612 19.3606 10.8687 19.3487 10.8791 19.3321C10.8855 19.3219 10.893 19.31 10.893 19.2907C10.9445 19.24 10.9445 19.24 10.996 19.24C11.3048 19.1894 11.5622 18.987 11.6651 18.6326C11.6668 18.6293 11.6686 18.6256 11.6707 18.6215C11.7958 18.3729 12.6579 16.6586 16.6579 16.6586C20.6731 16.6586 21.5072 18.343 21.6417 18.6146C21.6451 18.6216 21.6481 18.6276 21.6507 18.6326C21.7022 18.9363 21.908 19.1388 22.2169 19.24C22.3198 19.24 22.3198 19.3413 22.3198 19.3919C22.1654 20.0499 22.0625 20.6573 22.011 21.2141H22.0625C22.3198 21.2647 22.6287 21.3153 22.9375 21.3153C23.4007 21.3153 23.864 21.2141 24.1214 21.0622C24.6361 20.8092 24.6361 20.2524 24.6361 19.6956C24.6361 19.2907 24.6361 18.9363 24.842 18.6833C25.1508 18.2277 25.7685 17.9746 26.3861 17.9746C26.6059 17.9746 26.7882 18.0116 26.9971 18.0539C27.0327 18.0611 27.0692 18.0685 27.1067 18.0759C27.9818 18.3289 28.8568 19.0376 28.5994 19.9487C28.3935 20.7079 27.7759 20.7585 27.6215 20.7585C27.6215 20.7585 27.2612 20.7585 27.2097 20.6067C27.2097 20.5561 27.2097 20.5055 27.2612 20.4548C27.3126 20.4548 27.7759 20.1511 27.57 19.6956C27.467 19.5437 27.2612 19.4425 27.0038 19.4425C26.7979 19.4425 26.592 19.4931 26.4891 19.645C26.3347 19.7462 26.2832 19.9487 26.3347 20.2018C26.7464 23.5931 24.6875 24.0992 24.2758 24.1498C23.8125 24.2005 23.2463 24.2511 22.7831 24.2511C23.3493 25.0103 24.0184 25.5165 24.4817 25.8202L24.4817 25.8202C24.6361 25.9214 24.7905 26.0227 24.8934 26.1239C25.2537 26.4782 26.1802 26.7819 26.7979 26.7819C27.0038 26.7819 27.1582 26.7313 27.2612 26.6807C27.57 26.5288 27.7759 26.1745 27.8788 25.7696C27.9303 25.5165 27.9303 25.1622 27.6729 24.7572C27.467 24.4535 27.2612 24.3017 27.0553 24.3017C26.7979 24.3017 26.6435 24.5042 26.5405 24.7066C26.4891 24.9091 26.4891 25.0609 26.5405 25.2128C26.5405 25.2381 26.5438 25.2634 26.547 25.2887C26.5566 25.3646 26.5663 25.4406 26.4891 25.5165C26.4376 25.5671 26.3861 25.5671 26.2832 25.5671C26.0258 25.5671 25.5626 25.314 25.5111 24.7572C25.4596 24.4029 25.614 23.998 25.8714 23.6943C26.2317 23.2894 26.8494 23.0363 27.467 23.0363C27.6729 23.0363 27.8273 23.0363 27.9818 23.0869Z" fill="#0A3647"/>
<path fill-rule="evenodd" clip-rule="evenodd" d="M182.865 9.41479C182.677 9.41479 182.525 9.56465 182.525 9.74951V26.4434C182.525 26.6283 182.677 26.7781 182.865 26.7781H184.332C184.52 26.7781 184.672 26.6283 184.672 26.4434V21.8853H187.26L193.432 26.7057C193.492 26.7526 193.566 26.7781 193.643 26.7781H195.999C196.143 26.7781 196.272 26.688 196.32 26.5536C196.367 26.4191 196.323 26.2697 196.21 26.1812L190.703 21.8805C192.324 21.8165 193.84 21.1137 194.919 20.0511L194.921 20.0497C196.042 18.9332 196.758 17.344 196.758 15.6379C196.758 13.9554 196.041 12.3664 194.921 11.2504L194.919 11.249C193.787 10.1337 192.172 9.41479 190.461 9.41479H182.865ZM184.672 19.759V11.529H190.461C191.61 11.529 192.623 11.9867 193.39 12.7422L193.392 12.744C194.166 13.4948 194.61 14.5017 194.61 15.6379C194.61 16.798 194.166 17.7939 193.39 18.5579C192.625 19.3117 191.612 19.759 190.461 19.759H184.672Z" fill="#0A3647"/>
<path fill-rule="evenodd" clip-rule="evenodd" d="M173.244 18.1952C172.147 20.1873 169.673 21.7167 166.136 21.7428C166.107 21.7509 166.076 21.7553 166.044 21.7553H160.307C160.483 21.9558 160.704 22.187 160.952 22.4134L160.955 22.4165C162.296 23.6784 164.198 24.5101 166.399 24.6411H166.574C166.583 24.6411 166.591 24.6415 166.6 24.6421C166.745 24.6531 166.88 24.6533 167.042 24.6533C167.441 24.6533 167.832 24.6186 168.233 24.5709C168.79 24.5007 169.309 24.3964 169.837 24.2354C169.965 24.1858 170.111 24.1378 170.216 24.1034C170.235 24.0955 170.256 24.0872 170.278 24.0781C170.388 24.0336 170.541 23.9717 170.838 23.8708C171.008 23.8131 171.194 23.8958 171.263 24.0594L171.817 25.3818C171.852 25.4644 171.852 25.5572 171.816 25.6395C171.781 25.7218 171.714 25.7868 171.63 25.82C171.466 25.8844 171.338 25.9371 171.233 25.9801C171.115 26.0284 171.028 26.0644 170.954 26.0907L170.952 26.0914C170.866 26.1216 170.786 26.1462 170.718 26.1671L170.699 26.173C170.624 26.1961 170.568 26.2138 170.52 26.2325C170.512 26.2357 170.504 26.2386 170.496 26.2411C169.851 26.4404 169.19 26.5906 168.503 26.6783L168.502 26.6785C167.996 26.7407 167.452 26.7781 166.931 26.7781C166.856 26.7781 166.779 26.7748 166.711 26.7719L166.707 26.7718C166.635 26.7687 166.571 26.766 166.512 26.766C166.505 26.766 166.498 26.7658 166.491 26.7654L166.294 26.7533C163.606 26.591 161.189 25.5423 159.478 23.9706L159.475 23.9681C157.841 22.4344 156.794 20.3485 156.794 18.1086C156.794 18.0517 156.798 17.993 156.8 17.9441L156.801 17.9363C156.804 17.8823 156.807 17.8368 156.807 17.7932C156.807 17.783 156.807 17.7729 156.808 17.7629L156.82 17.6352C156.95 15.3576 158.08 13.2269 159.82 11.753C161.497 10.3164 163.819 9.41479 166.364 9.41479C169.767 9.41479 172.17 11.0005 173.258 13.0265L173.263 13.035C173.666 13.8418 173.889 14.7293 173.889 15.6093V15.6821C173.889 16.5386 173.665 17.4175 173.245 18.1932L173.244 18.1952ZM161.226 13.3506C162.556 12.2152 164.313 11.5275 166.364 11.5275C168.999 11.5275 170.629 12.6307 171.336 14.0016L171.339 14.0072C171.622 14.5307 171.755 15.0594 171.755 15.6093C171.755 16.1712 171.622 16.6867 171.34 17.1967L171.338 17.201C170.628 18.534 168.9 19.6304 165.798 19.6304H159.159C159.036 19.2014 158.953 18.6725 158.953 18.1086V17.7668C159.06 16.023 159.875 14.4953 161.225 13.3514L161.226 13.3506Z" fill="#0A3647"/>
<path fill-rule="evenodd" clip-rule="evenodd" d="M136.644 9.41479C136.454 9.41479 136.301 9.56465 136.301 9.74951V11.1943C136.301 11.3792 136.454 11.529 136.644 11.529H143.799C142.773 12.6019 142.122 14.0325 142.122 15.5651V26.4434C142.122 26.6283 142.276 26.7781 142.465 26.7781H143.946C144.135 26.7781 144.289 26.6283 144.289 26.4434V15.5651C144.289 14.4676 144.775 13.4986 145.619 12.7538L145.621 12.752C146.477 11.9841 147.613 11.529 148.934 11.529H150.999C151.188 11.529 151.342 11.3792 151.342 11.1943V9.74951C151.342 9.56465 151.188 9.41479 150.999 9.41479H136.644Z" fill="#0A3647"/>
<path fill-rule="evenodd" clip-rule="evenodd" d="M115.202 9.41479C115.014 9.41479 114.862 9.56465 114.862 9.74951V26.4434C114.862 26.6283 115.014 26.7781 115.202 26.7781H116.669C116.857 26.7781 117.009 26.6283 117.009 26.4434V21.8853H119.597L125.769 26.7057C125.829 26.7526 125.904 26.7781 125.98 26.7781H128.336C128.48 26.7781 128.609 26.688 128.657 26.5536C128.704 26.4191 128.66 26.2697 128.547 26.1812L123.04 21.8805C124.661 21.8165 126.177 21.1137 127.257 20.0511L127.258 20.0497C128.379 18.9332 129.095 17.344 129.095 15.6379C129.095 13.9554 128.379 12.3664 127.258 11.2504L127.257 11.249C126.124 10.1337 124.51 9.41479 122.799 9.41479H115.202ZM117.009 19.759V11.529H122.799C123.947 11.529 124.96 11.9867 125.728 12.7422L125.729 12.744C126.503 13.4948 126.948 14.5017 126.948 15.6379C126.948 16.798 126.504 17.7939 125.728 18.5579C124.962 19.3117 123.95 19.759 122.799 19.759H117.009Z" fill="#0A3647"/>
<path fill-rule="evenodd" clip-rule="evenodd" d="M94.8601 9.41479C94.6723 9.41479 94.5201 9.56465 94.5201 9.74951V11.1943C94.5201 11.3792 94.6723 11.529 94.8601 11.529H99.6697C100.913 11.529 102.042 11.9405 102.89 12.6511L102.893 12.6534C103.437 13.1 103.81 13.6272 103.976 14.0891H100.188C100.036 14.0891 99.864 14.0992 99.6863 14.1096L99.6167 14.1137C97.1175 14.2014 95.2005 14.9364 93.9333 16.0294C92.5995 17.1753 91.9426 18.7372 91.9426 20.2879C91.9426 20.3375 91.9426 20.4223 91.9557 20.5325C92.0666 23.5019 94.1385 25.4651 96.548 26.2979L96.5504 26.2987C97.487 26.6145 98.5109 26.7781 99.497 26.7781L99.5015 26.7781C100.484 26.7656 101.5 26.6025 102.396 26.2573C102.937 26.0482 103.453 25.7766 103.861 25.5206C103.95 25.4644 104.035 25.4084 104.115 25.3536V26.4434C104.115 26.6283 104.267 26.7781 104.455 26.7781H105.922C106.11 26.7781 106.262 26.6283 106.262 26.4434V15.0794C106.262 13.4492 105.454 12.0126 104.28 11.0361C103.069 10.0235 101.375 9.41479 99.6697 9.41479H94.8601ZM94.0902 20.0451C94.0902 20.0162 94.0864 19.9882 94.0795 19.9615C94.1073 19.2449 94.4915 18.3567 95.3403 17.6404L95.3429 17.6381C96.2552 16.8523 97.6513 16.2992 99.6891 16.2155H100.434C100.466 16.2155 100.496 16.2112 100.525 16.2033H104.115V20.7857C104.115 21.7095 103.854 22.4389 103.424 23.0042C102.992 23.5721 102.374 23.9936 101.632 24.2733C100.972 24.5241 100.248 24.6521 99.4821 24.6639C98.72 24.6636 97.9689 24.5365 97.2522 24.2936C95.4746 23.6949 94.1721 22.4226 94.0902 20.4512V20.0451Z" fill="#0A3647"/>
<path fill-rule="evenodd" clip-rule="evenodd" d="M81.6413 9.41479C81.4536 9.41479 81.3013 9.56465 81.3013 9.74951V20.2992C80.0344 19.2429 78.2921 18.5691 76.4248 18.5691H72.0168V9.76165C72.0168 9.57679 71.8646 9.42694 71.6768 9.42694H70.2216C70.0338 9.42694 69.8816 9.57679 69.8816 9.76165V26.4434C69.8816 26.6283 70.0338 26.7781 70.2216 26.7781H71.6768C71.8646 26.7781 72.0168 26.6283 72.0168 26.4434V20.6712H76.4248C77.8112 20.6712 79.0137 21.1404 79.9249 21.9236C80.5886 22.4968 80.9224 23.0235 81.0982 23.5726C81.278 24.1341 81.3013 24.7423 81.3013 25.5086V26.4434C81.3013 26.6283 81.4536 26.7781 81.6413 26.7781H83.1089C83.2967 26.7781 83.4489 26.6283 83.4489 26.4434V9.74951C83.4489 9.56465 83.2967 9.41479 83.1089 9.41479H81.6413Z" fill="#0A3647"/>
<path fill-rule="evenodd" clip-rule="evenodd" d="M55.2558 8.83594C53.983 8.83594 52.7903 9.07795 51.6747 9.56054C50.5536 10.0455 49.5793 10.7048 48.7492 11.5386L48.747 11.5409C47.9179 12.3571 47.2562 13.3251 46.763 14.4465C46.2899 15.5448 46.0522 16.7283 46.0522 17.9999C46.0522 19.2708 46.2896 20.4628 46.7627 21.5786L46.7635 21.5803C47.2564 22.6838 47.9179 23.6515 48.7479 24.4857C49.5778 25.3023 50.553 25.9541 51.6747 26.4393C52.7903 26.9219 53.983 27.1639 55.2558 27.1639C56.8026 27.1639 58.2064 26.8297 59.4726 26.1648L59.4743 26.1639C60.4821 25.6417 61.3532 24.9781 62.0897 24.1729C62.3179 23.9235 62.2756 23.5173 61.9679 23.2909L61.2794 22.7845C60.9757 22.5611 60.5122 22.621 60.2191 22.9389C59.7459 23.4521 59.1982 23.8907 58.5775 24.2549C58.5418 24.2758 58.5058 24.2965 58.4697 24.317L58.4679 24.3179C57.4952 24.8599 56.4225 25.1297 55.2558 25.1297C54.3059 25.1297 53.4077 24.9406 52.5643 24.5615L52.5618 24.5604C51.7418 24.1836 51.0211 23.6717 50.4013 23.0257C49.7814 22.3794 49.2904 21.6267 48.9278 20.77C48.5624 19.9067 48.3808 18.9824 48.3808 17.9999C48.3808 17.0175 48.5624 16.0932 48.9278 15.2299C49.2904 14.3732 49.7814 13.6204 50.4013 12.9742C51.0202 12.3291 51.7397 11.8177 52.5581 11.4411L52.5621 11.4393L52.5644 11.4383C53.4078 11.0592 54.306 10.8701 55.2558 10.8701C56.4228 10.8701 57.4957 11.1487 58.468 11.7078L58.4698 11.7088C59.1341 12.0726 59.717 12.5235 60.2169 13.0613C60.5121 13.3789 60.9759 13.4386 61.2794 13.2153L61.9679 12.7089C62.2756 12.4826 62.3179 12.0763 62.0897 11.8269C61.3532 11.0217 60.4819 10.358 59.4741 9.8358L59.4725 9.83502C58.2063 9.17018 56.8026 8.83594 55.2558 8.83594Z" fill="#0A3647"/>
<path fill-rule="evenodd" clip-rule="evenodd" d="M246.616 9.41479C246.428 9.41479 246.276 9.56465 246.276 9.74951V26.4434C246.276 26.6283 246.428 26.7781 246.616 26.7781H248.084C248.271 26.7781 248.424 26.6283 248.424 26.4434V9.74951C248.424 9.56465 248.271 9.41479 248.084 9.41479H246.616Z" fill="#109EEE"/>
<path fill-rule="evenodd" clip-rule="evenodd" d="M263.772 8.83594C262.499 8.83594 261.306 9.07795 260.191 9.56054C259.069 10.0455 258.095 10.7048 257.265 11.5386L257.263 11.5409C256.434 12.3571 255.772 13.3251 255.279 14.4465C254.806 15.5448 254.568 16.7283 254.568 17.9999C254.568 19.2708 254.805 20.4628 255.279 21.5786L255.279 21.5803C255.772 22.6838 256.434 23.6515 257.264 24.4857L257.264 24.4864C258.094 25.3031 259.069 25.9541 260.191 26.4393C261.306 26.9219 262.499 27.1639 263.772 27.1639C265.318 27.1639 266.722 26.8297 267.989 26.1648L267.99 26.1639C268.998 25.6417 269.869 24.9781 270.606 24.1729C270.834 23.9235 270.792 23.5173 270.484 23.2909L269.795 22.7845C269.492 22.5611 269.028 22.621 268.735 22.9389C268.262 23.4521 267.714 23.8907 267.093 24.2549C267.058 24.2758 267.022 24.2965 266.986 24.317L266.984 24.3179C266.011 24.8599 264.938 25.1297 263.772 25.1297C262.822 25.1297 261.924 24.9406 261.08 24.5615L261.078 24.5604C260.258 24.1836 259.537 23.6717 258.917 23.0257C258.297 22.3794 257.806 21.6267 257.444 20.77C257.078 19.9067 256.897 18.9824 256.897 17.9999C256.897 17.0175 257.078 16.0932 257.444 15.2299C257.806 14.3732 258.297 13.6204 258.917 12.9742C259.536 12.3291 260.256 11.8177 261.074 11.4411L261.078 11.4393L261.08 11.4383C261.924 11.0592 262.822 10.8701 263.772 10.8701C264.939 10.8701 266.012 11.1487 266.984 11.7078L266.986 11.7088C267.65 12.0726 268.233 12.5235 268.733 13.0613C269.028 13.3789 269.492 13.4386 269.795 13.2153L270.484 12.7089C270.792 12.4826 270.834 12.0763 270.606 11.8269C269.869 11.0217 268.998 10.358 267.99 9.8358L267.988 9.83502C266.722 9.17018 265.318 8.83594 263.772 8.83594Z" fill="#109EEE"/>
<path fill-rule="evenodd" clip-rule="evenodd" d="M212.82 8.83594C211.547 8.83594 210.355 9.07794 209.239 9.56054C208.118 10.0455 207.144 10.7048 206.314 11.5386L206.311 11.5409C205.482 12.3571 204.821 13.3251 204.327 14.4465C203.854 15.5448 203.617 16.7283 203.617 17.9999C203.617 19.2708 203.854 20.4628 204.327 21.5786L204.328 21.5803C204.821 22.6838 205.482 23.6515 206.312 24.4857L206.313 24.4864C207.143 25.3031 208.117 25.9541 209.239 26.4393C210.355 26.9219 211.547 27.1639 212.82 27.1639C214.367 27.1639 215.771 26.8297 217.037 26.1648L217.039 26.1639C218.047 25.6417 218.918 24.9781 219.654 24.1729C219.882 23.9235 219.84 23.5173 219.532 23.2909L218.844 22.7845C218.54 22.5611 218.077 22.621 217.784 22.9389C217.31 23.4521 216.763 23.8907 216.142 24.2549C216.106 24.2758 216.07 24.2965 216.034 24.317L216.032 24.3179C215.06 24.86 213.987 25.1297 212.82 25.1297C211.87 25.1297 210.972 24.9406 210.129 24.5615L210.126 24.5604C209.306 24.1836 208.586 23.6717 207.966 23.0257C207.346 22.3794 206.855 21.6267 206.492 20.77C206.127 19.9067 205.945 18.9824 205.945 17.9999C205.945 17.0175 206.127 16.0932 206.492 15.2299C206.855 14.3732 207.346 13.6204 207.966 12.9742C208.585 12.3291 209.304 11.8177 210.123 11.4411L210.127 11.4393L210.129 11.4383C210.972 11.0592 211.87 10.8701 212.82 10.8701C213.987 10.8701 215.06 11.1487 216.032 11.7078L216.034 11.7088C216.699 12.0726 217.281 12.5235 217.781 13.0613C218.077 13.3789 218.54 13.4386 218.844 13.2153L219.532 12.7089C219.84 12.4826 219.882 12.0763 219.654 11.8269C218.918 11.0217 218.046 10.358 217.039 9.8358L217.037 9.83502C215.771 9.17018 214.367 8.83594 212.82 8.83594Z" fill="#109EEE"/>
<path fill-rule="evenodd" clip-rule="evenodd" d="M226.58 9.41479C226.392 9.41479 226.24 9.56465 226.24 9.74951V20.0738C226.228 20.1804 226.228 20.2601 226.228 20.2879C226.228 21.865 226.852 23.4952 228.106 24.6915C229.323 25.8768 231.197 26.6779 233.607 26.7778C233.61 26.778 233.614 26.7781 233.617 26.7781L233.622 26.7781H238.481C238.668 26.7781 238.821 26.6283 238.821 26.4434V24.9986C238.821 24.8138 238.668 24.6639 238.481 24.6639H233.677C231.763 24.5925 230.457 24.0097 229.593 23.1813C228.762 22.3739 228.375 21.369 228.375 20.2879V9.74951C228.375 9.56465 228.223 9.41479 228.035 9.41479H226.58Z" fill="#109EEE"/>
<path fill-rule="evenodd" clip-rule="evenodd" d="M277.176 9.41479C277.041 9.41479 276.931 9.52303 276.931 9.65654V26.5364C276.931 26.6699 277.041 26.7781 277.176 26.7781H278.66C278.796 26.7781 278.906 26.6699 278.906 26.5364V21.5772C279.721 21.4948 280.744 21.2699 281.66 20.9099L288.854 26.7233C288.898 26.7587 288.953 26.7781 289.01 26.7781H291.354C291.458 26.7781 291.551 26.714 291.586 26.6179C291.62 26.5218 291.59 26.4144 291.51 26.3496L283.619 19.9683C284.201 19.6209 284.971 19.0537 285.711 18.378C287.655 16.589 289.445 13.8992 290.876 9.73401C290.902 9.66022 290.889 9.57892 290.843 9.51563C290.797 9.45233 290.723 9.41479 290.644 9.41479H289.072C288.968 9.41479 288.875 9.47967 288.841 9.57658C287.578 13.1217 286.038 15.4176 284.366 16.9561C282.491 18.6874 280.504 19.4308 278.906 19.6158V9.65654C278.906 9.52303 278.796 9.41479 278.66 9.41479H277.176Z" fill="#109EEE"/>
</svg>
